<svg width="393" height="834" viewBox="0 0 393 834" fill="none" xmlns="http://www.w3.org/2000/svg">
<g clip-path="url(#clip0_15_490)">
<rect width="393" height="834" rx="50" fill="#171311"/>
<path d="M151.753 171.5H150.608C150.54 171.171 150.422 170.881 150.252 170.632C150.086 170.383 149.883 170.174 149.643 170.004C149.406 169.832 149.143 169.703 148.854 169.616C148.564 169.53 148.263 169.487 147.949 169.487C147.376 169.487 146.858 169.632 146.393 169.921C145.931 170.21 145.564 170.637 145.29 171.2C145.019 171.763 144.884 172.454 144.884 173.273C144.884 174.091 145.019 174.782 145.29 175.346C145.564 175.909 145.931 176.335 146.393 176.624C146.858 176.914 147.376 177.058 147.949 177.058C148.263 177.058 148.564 177.015 148.854 176.929C149.143 176.843 149.406 176.715 149.643 176.546C149.883 176.373 150.086 176.163 150.252 175.913C150.422 175.661 150.54 175.372 150.608 175.045H151.753C151.667 175.529 151.51 175.961 151.282 176.343C151.054 176.724 150.771 177.049 150.433 177.317C150.094 177.581 149.714 177.783 149.292 177.922C148.874 178.06 148.426 178.129 147.949 178.129C147.143 178.129 146.425 177.932 145.798 177.538C145.17 177.144 144.676 176.584 144.316 175.858C143.956 175.132 143.776 174.27 143.776 173.273C143.776 172.276 143.956 171.414 144.316 170.688C144.676 169.961 145.17 169.401 145.798 169.007C146.425 168.613 147.143 168.416 147.949 168.416C148.426 168.416 148.874 168.485 149.292 168.624C149.714 168.762 150.094 168.966 150.433 169.233C150.771 169.498 151.054 169.821 151.282 170.203C151.51 170.581 151.667 171.014 151.753 171.5ZM159.807 168.545H160.952V174.805C160.952 175.452 160.8 176.029 160.495 176.537C160.194 177.041 159.767 177.44 159.217 177.732C158.666 178.022 158.019 178.166 157.278 178.166C156.536 178.166 155.89 178.022 155.339 177.732C154.788 177.44 154.36 177.041 154.055 176.537C153.754 176.029 153.603 175.452 153.603 174.805V168.545H154.748V174.713C154.748 175.175 154.849 175.586 155.052 175.946C155.256 176.303 155.545 176.584 155.92 176.79C156.299 176.994 156.751 177.095 157.278 177.095C157.804 177.095 158.256 176.994 158.635 176.79C159.013 176.584 159.303 176.303 159.503 175.946C159.706 175.586 159.807 175.175 159.807 174.713V168.545ZM163.239 178V168.545H166.433C167.172 168.545 167.778 168.672 168.252 168.924C168.726 169.173 169.077 169.516 169.305 169.953C169.532 170.391 169.646 170.888 169.646 171.445C169.646 172.002 169.532 172.496 169.305 172.926C169.077 173.357 168.728 173.696 168.257 173.942C167.786 174.185 167.184 174.307 166.452 174.307H163.866V173.273H166.415C166.92 173.273 167.326 173.199 167.634 173.051C167.944 172.903 168.169 172.694 168.308 172.423C168.449 172.149 168.52 171.823 168.52 171.445C168.52 171.066 168.449 170.735 168.308 170.452C168.166 170.169 167.94 169.95 167.629 169.797C167.318 169.64 166.907 169.561 166.396 169.561H164.384V178H163.239ZM167.689 173.753L170.016 178H168.686L166.396 173.753H167.689ZM171.554 178V168.545H174.749C175.487 168.545 176.094 168.672 176.568 168.924C177.042 169.173 177.392 169.516 177.62 169.953C177.848 170.391 177.962 170.888 177.962 171.445C177.962 172.002 177.848 172.496 177.62 172.926C177.392 173.357 177.043 173.696 176.572 173.942C176.101 174.185 175.5 174.307 174.767 174.307H172.182V173.273H174.73C175.235 173.273 175.641 173.199 175.949 173.051C176.26 172.903 176.484 172.694 176.623 172.423C176.765 172.149 176.835 171.823 176.835 171.445C176.835 171.066 176.765 170.735 176.623 170.452C176.481 170.169 176.255 169.95 175.944 169.797C175.633 169.64 175.223 169.561 174.712 169.561H172.699V178H171.554ZM176.004 173.753L178.331 178H177.002L174.712 173.753H176.004ZM179.869 178V168.545H185.575V169.561H181.014V172.756H185.28V173.771H181.014V176.984H185.649V178H179.869ZM195.136 168.545V178H194.028L188.876 170.577H188.784V178H187.639V168.545H188.747L193.917 175.987H194.01V168.545H195.136ZM196.91 169.561V168.545H204.001V169.561H201.028V178H199.883V169.561H196.91ZM209.424 178V168.545H212.619C213.36 168.545 213.967 168.679 214.438 168.947C214.912 169.212 215.262 169.57 215.49 170.023C215.718 170.475 215.832 170.98 215.832 171.537C215.832 172.094 215.718 172.6 215.49 173.056C215.266 173.511 214.918 173.874 214.447 174.145C213.976 174.413 213.373 174.547 212.637 174.547H210.347V173.531H212.6C213.108 173.531 213.516 173.444 213.824 173.268C214.131 173.093 214.355 172.856 214.493 172.557C214.635 172.256 214.705 171.915 214.705 171.537C214.705 171.158 214.635 170.82 214.493 170.521C214.355 170.223 214.13 169.989 213.819 169.82C213.508 169.647 213.096 169.561 212.582 169.561H210.569V178H209.424ZM217.676 178V168.545H220.871C221.609 168.545 222.216 168.672 222.69 168.924C223.164 169.173 223.514 169.516 223.742 169.953C223.97 170.391 224.084 170.888 224.084 171.445C224.084 172.002 223.97 172.496 223.742 172.926C223.514 173.357 223.165 173.696 222.694 173.942C222.223 174.185 221.622 174.307 220.889 174.307H218.304V173.273H220.852C221.357 173.273 221.763 173.199 222.071 173.051C222.382 172.903 222.607 172.694 222.745 172.423C222.887 172.149 222.957 171.823 222.957 171.445C222.957 171.066 222.887 170.735 222.745 170.452C222.603 170.169 222.377 169.95 222.066 169.797C221.756 169.64 221.345 169.561 220.834 169.561H218.821V178H217.676ZM222.126 173.753L224.453 178H223.124L220.834 173.753H222.126ZM227.136 168.545V178H225.992V168.545H227.136ZM237.04 171.5H235.895C235.827 171.171 235.709 170.881 235.54 170.632C235.373 170.383 235.17 170.174 234.93 170.004C234.693 169.832 234.43 169.703 234.141 169.616C233.852 169.53 233.55 169.487 233.236 169.487C232.664 169.487 232.145 169.632 231.68 169.921C231.219 170.21 230.851 170.637 230.577 171.2C230.306 171.763 230.171 172.454 230.171 173.273C230.171 174.091 230.306 174.782 230.577 175.346C230.851 175.909 231.219 176.335 231.68 176.624C232.145 176.914 232.664 177.058 233.236 177.058C233.55 177.058 233.852 177.015 234.141 176.929C234.43 176.843 234.693 176.715 234.93 176.546C235.17 176.373 235.373 176.163 235.54 175.913C235.709 175.661 235.827 175.372 235.895 175.045H237.04C236.954 175.529 236.797 175.961 236.569 176.343C236.341 176.724 236.058 177.049 235.72 177.317C235.381 177.581 235.001 177.783 234.579 177.922C234.161 178.06 233.713 178.129 233.236 178.129C232.43 178.129 231.713 177.932 231.085 177.538C230.457 177.144 229.963 176.584 229.603 175.858C229.243 175.132 229.063 174.27 229.063 173.273C229.063 172.276 229.243 171.414 229.603 170.688C229.963 169.961 230.457 169.401 231.085 169.007C231.713 168.613 232.43 168.416 233.236 168.416C233.713 168.416 234.161 168.485 234.579 168.624C235.001 168.762 235.381 168.966 235.72 169.233C236.058 169.498 236.341 169.821 236.569 170.203C236.797 170.581 236.954 171.014 237.04 171.5ZM238.89 178V168.545H244.596V169.561H240.035V172.756H244.301V173.771H240.035V176.984H244.67V178H238.89Z" fill="#A5A5A5"/>
<path d="M74.5568 231.364V187.727H77.3523V231.364H74.5568ZM81.9716 202.131C81.8352 200.756 81.25 199.687 80.2159 198.926C79.1818 198.165 77.7784 197.784 76.0057 197.784C74.8011 197.784 73.7841 197.955 72.9545 198.295C72.125 198.625 71.4886 199.085 71.0455 199.676C70.6136 200.267 70.3977 200.938 70.3977 201.688C70.375 202.312 70.5057 202.858 70.7898 203.324C71.0852 203.79 71.4886 204.193 72 204.534C72.5114 204.864 73.1023 205.153 73.7727 205.403C74.4432 205.642 75.1591 205.847 75.9205 206.017L79.0568 206.767C80.5795 207.108 81.9773 207.562 83.25 208.131C84.5227 208.699 85.625 209.398 86.5568 210.227C87.4886 211.057 88.2102 212.034 88.7216 213.159C89.2443 214.284 89.5114 215.574 89.5227 217.028C89.5114 219.165 88.9659 221.017 87.8864 222.585C86.8182 224.142 85.2727 225.352 83.25 226.216C81.2386 227.068 78.8125 227.494 75.9716 227.494C73.1534 227.494 70.6989 227.062 68.608 226.199C66.5284 225.335 64.9034 224.057 63.733 222.364C62.5739 220.659 61.9659 218.551 61.9091 216.04H69.0511C69.1307 217.21 69.4659 218.187 70.0568 218.972C70.6591 219.744 71.4602 220.33 72.4602 220.727C73.4716 221.114 74.6136 221.307 75.8864 221.307C77.1364 221.307 78.2216 221.125 79.142 220.761C80.0739 220.398 80.7955 219.892 81.3068 219.244C81.8182 218.597 82.0739 217.852 82.0739 217.011C82.0739 216.227 81.8409 215.568 81.375 215.034C80.9205 214.5 80.25 214.045 79.3636 213.67C78.4886 213.295 77.4148 212.955 76.142 212.648L72.3409 211.693C69.3977 210.977 67.0739 209.858 65.3693 208.335C63.6648 206.812 62.8182 204.761 62.8295 202.182C62.8182 200.068 63.3807 198.222 64.517 196.642C65.6648 195.062 67.2386 193.83 69.2386 192.943C71.2386 192.057 73.5114 191.614 76.0568 191.614C78.6477 191.614 80.9091 192.057 82.8409 192.943C84.7841 193.83 86.2955 195.062 87.375 196.642C88.4545 198.222 89.0114 200.051 89.0455 202.131H81.9716ZM106.913 191.614C108.709 191.614 110.436 191.915 112.095 192.517C113.766 193.119 115.254 194.08 116.561 195.398C117.879 196.716 118.919 198.466 119.68 200.648C120.453 202.818 120.845 205.483 120.857 208.642C120.857 211.608 120.521 214.256 119.851 216.585C119.192 218.903 118.243 220.875 117.004 222.5C115.766 224.125 114.271 225.364 112.521 226.216C110.771 227.057 108.817 227.477 106.658 227.477C104.328 227.477 102.271 227.028 100.487 226.131C98.7031 225.222 97.2656 223.989 96.1747 222.432C95.0952 220.864 94.4418 219.102 94.2145 217.148H101.493C101.777 218.42 102.374 219.409 103.283 220.114C104.192 220.807 105.317 221.153 106.658 221.153C108.93 221.153 110.658 220.165 111.839 218.188C113.021 216.199 113.618 213.477 113.629 210.023H113.391C112.868 211.045 112.163 211.926 111.277 212.665C110.391 213.392 109.374 213.955 108.226 214.352C107.089 214.75 105.879 214.949 104.595 214.949C102.538 214.949 100.703 214.466 99.0895 213.5C97.4759 212.534 96.2031 211.205 95.2713 209.511C94.3395 207.818 93.8736 205.886 93.8736 203.716C93.8622 201.375 94.402 199.29 95.4929 197.46C96.5838 195.631 98.1065 194.199 100.061 193.165C102.027 192.119 104.311 191.602 106.913 191.614ZM106.964 197.409C105.817 197.409 104.794 197.682 103.896 198.227C103.01 198.773 102.305 199.506 101.783 200.426C101.271 201.347 101.021 202.375 101.033 203.511C101.033 204.659 101.283 205.693 101.783 206.614C102.294 207.523 102.987 208.25 103.862 208.795C104.749 209.33 105.76 209.597 106.896 209.597C107.749 209.597 108.538 209.437 109.266 209.119C109.993 208.801 110.624 208.364 111.158 207.807C111.703 207.239 112.129 206.585 112.436 205.847C112.743 205.108 112.896 204.324 112.896 203.494C112.885 202.392 112.624 201.381 112.112 200.46C111.601 199.54 110.896 198.801 109.999 198.244C109.101 197.687 108.089 197.409 106.964 197.409ZM139.658 227.767C136.726 227.756 134.203 227.034 132.089 225.602C129.987 224.17 128.368 222.097 127.232 219.381C126.107 216.665 125.55 213.398 125.561 209.58C125.561 205.773 126.124 202.528 127.249 199.847C128.385 197.165 130.004 195.125 132.107 193.727C134.22 192.318 136.737 191.614 139.658 191.614C142.578 191.614 145.089 192.318 147.192 193.727C149.305 195.136 150.93 197.182 152.067 199.864C153.203 202.534 153.766 205.773 153.754 209.58C153.754 213.409 153.186 216.682 152.05 219.398C150.925 222.114 149.311 224.187 147.209 225.619C145.107 227.051 142.589 227.767 139.658 227.767ZM139.658 221.648C141.658 221.648 143.254 220.642 144.447 218.631C145.641 216.619 146.232 213.602 146.22 209.58C146.22 206.932 145.947 204.727 145.402 202.966C144.868 201.205 144.107 199.881 143.118 198.994C142.141 198.108 140.987 197.665 139.658 197.665C137.669 197.665 136.078 198.659 134.885 200.648C133.692 202.636 133.089 205.614 133.078 209.58C133.078 212.261 133.345 214.5 133.879 216.295C134.425 218.08 135.192 219.42 136.18 220.318C137.169 221.205 138.328 221.648 139.658 221.648ZM165.571 222.227L165.384 224.102C165.236 225.602 164.952 227.097 164.531 228.585C164.122 230.085 163.69 231.443 163.236 232.659C162.793 233.875 162.435 234.83 162.162 235.523H157.457C157.628 234.852 157.861 233.915 158.156 232.71C158.452 231.517 158.73 230.176 158.991 228.688C159.253 227.199 159.418 225.682 159.486 224.136L159.571 222.227H165.571ZM171.614 220.864V215.051L186.188 192.091H191.199V200.136H188.233L179.045 214.676V214.949H199.756V220.864H171.614ZM188.369 227V219.091L188.506 216.517V192.091H195.426V227H188.369ZM218.071 227.477C216.276 227.466 214.543 227.165 212.872 226.574C211.213 225.983 209.724 225.023 208.406 223.693C207.088 222.364 206.043 220.602 205.27 218.409C204.509 216.216 204.128 213.523 204.128 210.33C204.139 207.398 204.474 204.778 205.134 202.472C205.804 200.153 206.759 198.187 207.997 196.574C209.247 194.96 210.741 193.733 212.48 192.892C214.219 192.04 216.168 191.614 218.327 191.614C220.656 191.614 222.713 192.068 224.497 192.977C226.281 193.875 227.713 195.097 228.793 196.642C229.884 198.188 230.543 199.92 230.77 201.841H223.491C223.207 200.625 222.611 199.67 221.702 198.977C220.793 198.284 219.668 197.938 218.327 197.938C216.054 197.938 214.327 198.926 213.145 200.903C211.974 202.881 211.378 205.568 211.355 208.966H211.594C212.116 207.932 212.821 207.051 213.707 206.324C214.605 205.585 215.622 205.023 216.759 204.636C217.906 204.239 219.116 204.04 220.389 204.04C222.457 204.04 224.298 204.528 225.912 205.506C227.526 206.472 228.798 207.801 229.73 209.494C230.662 211.187 231.128 213.125 231.128 215.307C231.128 217.67 230.577 219.773 229.474 221.614C228.384 223.455 226.855 224.898 224.889 225.943C222.935 226.977 220.662 227.489 218.071 227.477ZM218.037 221.682C219.173 221.682 220.19 221.409 221.088 220.864C221.986 220.318 222.69 219.58 223.202 218.648C223.713 217.716 223.969 216.67 223.969 215.511C223.969 214.352 223.713 213.312 223.202 212.392C222.702 211.472 222.009 210.739 221.122 210.193C220.236 209.648 219.224 209.375 218.088 209.375C217.236 209.375 216.446 209.534 215.719 209.852C215.003 210.17 214.372 210.614 213.827 211.182C213.293 211.75 212.872 212.409 212.565 213.159C212.259 213.898 212.105 214.687 212.105 215.528C212.105 216.653 212.361 217.682 212.872 218.614C213.395 219.545 214.099 220.29 214.986 220.847C215.884 221.403 216.901 221.682 218.037 221.682ZM249.264 227.477C246.719 227.477 244.452 227.04 242.463 226.165C240.486 225.278 238.923 224.062 237.776 222.517C236.639 220.96 236.054 219.165 236.02 217.131H243.452C243.497 217.983 243.776 218.733 244.287 219.381C244.81 220.017 245.503 220.511 246.366 220.864C247.23 221.216 248.202 221.392 249.281 221.392C250.406 221.392 251.401 221.193 252.264 220.795C253.128 220.398 253.804 219.847 254.293 219.142C254.781 218.437 255.026 217.625 255.026 216.705C255.026 215.773 254.764 214.949 254.241 214.233C253.73 213.506 252.991 212.937 252.026 212.528C251.071 212.119 249.935 211.915 248.616 211.915H245.361V206.494H248.616C249.73 206.494 250.713 206.301 251.565 205.915C252.429 205.528 253.099 204.994 253.577 204.312C254.054 203.619 254.293 202.812 254.293 201.892C254.293 201.017 254.082 200.25 253.662 199.591C253.253 198.92 252.673 198.398 251.923 198.023C251.185 197.648 250.321 197.46 249.332 197.46C248.332 197.46 247.418 197.642 246.588 198.006C245.759 198.358 245.094 198.864 244.594 199.523C244.094 200.182 243.827 200.955 243.793 201.841H236.719C236.753 199.83 237.327 198.057 238.44 196.523C239.554 194.989 241.054 193.79 242.94 192.926C244.838 192.051 246.98 191.614 249.366 191.614C251.776 191.614 253.884 192.051 255.69 192.926C257.497 193.801 258.901 194.983 259.901 196.472C260.912 197.949 261.412 199.608 261.401 201.449C261.412 203.403 260.804 205.034 259.577 206.341C258.361 207.648 256.776 208.477 254.821 208.83V209.102C257.389 209.432 259.344 210.324 260.685 211.778C262.037 213.222 262.707 215.028 262.696 217.199C262.707 219.188 262.134 220.955 260.974 222.5C259.827 224.045 258.241 225.261 256.219 226.148C254.196 227.034 251.878 227.477 249.264 227.477ZM271.33 227.443C270.205 227.443 269.239 227.045 268.432 226.25C267.636 225.443 267.239 224.477 267.239 223.352C267.239 222.239 267.636 221.284 268.432 220.489C269.239 219.693 270.205 219.295 271.33 219.295C272.42 219.295 273.375 219.693 274.193 220.489C275.011 221.284 275.42 222.239 275.42 223.352C275.42 224.102 275.227 224.79 274.841 225.415C274.466 226.028 273.972 226.523 273.358 226.898C272.744 227.261 272.068 227.443 271.33 227.443ZM293.595 227.767C290.663 227.756 288.141 227.034 286.027 225.602C283.925 224.17 282.305 222.097 281.169 219.381C280.044 216.665 279.487 213.398 279.499 209.58C279.499 205.773 280.061 202.528 281.186 199.847C282.322 197.165 283.942 195.125 286.044 193.727C288.158 192.318 290.675 191.614 293.595 191.614C296.516 191.614 299.027 192.318 301.129 193.727C303.243 195.136 304.868 197.182 306.004 199.864C307.141 202.534 307.703 205.773 307.692 209.58C307.692 213.409 307.124 216.682 305.987 219.398C304.862 222.114 303.249 224.187 301.146 225.619C299.044 227.051 296.527 227.767 293.595 227.767ZM293.595 221.648C295.595 221.648 297.192 220.642 298.385 218.631C299.578 216.619 300.169 213.602 300.158 209.58C300.158 206.932 299.885 204.727 299.339 202.966C298.805 201.205 298.044 199.881 297.055 198.994C296.078 198.108 294.925 197.665 293.595 197.665C291.607 197.665 290.016 198.659 288.822 200.648C287.629 202.636 287.027 205.614 287.016 209.58C287.016 212.261 287.283 214.5 287.817 216.295C288.362 218.08 289.129 219.42 290.118 220.318C291.107 221.205 292.266 221.648 293.595 221.648ZM328.142 192.091V227H320.761V199.097H320.557L312.562 204.108V197.562L321.205 192.091H328.142Z" fill="white"/>
<rect x="142.1" y="246.1" width="110.8" height="25.8" rx="12.9" fill="#003C01" stroke="#5DCE00" stroke-width="0.2"/>
<path d="M175.425 261.835V256.92H176.54V261.835H175.425ZM173.525 259.935V258.82H178.439V259.935H173.525ZM182.682 263.138C182.097 263.138 181.596 262.991 181.176 262.695C180.76 262.396 180.439 261.967 180.214 261.406C179.992 260.842 179.88 260.164 179.88 259.371C179.883 258.578 179.995 257.903 180.218 257.347C180.443 256.788 180.763 256.362 181.18 256.068C181.599 255.775 182.1 255.628 182.682 255.628C183.265 255.628 183.765 255.775 184.184 256.068C184.603 256.362 184.924 256.788 185.147 257.347C185.372 257.905 185.484 258.58 185.484 259.371C185.484 260.166 185.372 260.846 185.147 261.409C184.924 261.97 184.603 262.399 184.184 262.695C183.768 262.991 183.267 263.138 182.682 263.138ZM182.682 262.027C183.137 262.027 183.495 261.803 183.758 261.356C184.023 260.906 184.156 260.244 184.156 259.371C184.156 258.793 184.096 258.308 183.975 257.915C183.854 257.522 183.684 257.226 183.463 257.027C183.243 256.826 182.983 256.725 182.682 256.725C182.23 256.725 181.873 256.95 181.61 257.4C181.347 257.847 181.214 258.504 181.212 259.371C181.21 259.951 181.268 260.438 181.386 260.834C181.507 261.229 181.677 261.527 181.897 261.729C182.118 261.928 182.379 262.027 182.682 262.027ZM187.187 263.078C186.971 263.078 186.787 263.002 186.633 262.851C186.479 262.699 186.403 262.515 186.406 262.297C186.403 262.084 186.479 261.902 186.633 261.75C186.787 261.598 186.971 261.523 187.187 261.523C187.395 261.523 187.576 261.598 187.73 261.75C187.886 261.902 187.966 262.084 187.968 262.297C187.966 262.441 187.928 262.573 187.854 262.691C187.783 262.809 187.689 262.904 187.57 262.975C187.454 263.044 187.326 263.078 187.187 263.078ZM191.722 263.099C191.248 263.099 190.824 263.011 190.45 262.833C190.076 262.653 189.779 262.407 189.559 262.094C189.341 261.782 189.225 261.424 189.211 261.022H190.489C190.513 261.32 190.642 261.564 190.876 261.754C191.111 261.941 191.393 262.034 191.722 262.034C191.98 262.034 192.209 261.975 192.411 261.857C192.612 261.738 192.77 261.574 192.886 261.363C193.002 261.152 193.059 260.912 193.057 260.642C193.059 260.367 193.001 260.124 192.883 259.911C192.764 259.697 192.602 259.531 192.396 259.41C192.19 259.287 191.954 259.225 191.686 259.225C191.468 259.223 191.254 259.263 191.043 259.346C190.833 259.429 190.666 259.538 190.543 259.673L189.353 259.477L189.733 255.727H193.952V256.828H190.823L190.614 258.756H190.656C190.791 258.598 190.982 258.466 191.228 258.362C191.474 258.256 191.744 258.202 192.038 258.202C192.478 258.202 192.871 258.307 193.217 258.515C193.562 258.721 193.835 259.005 194.033 259.367C194.232 259.729 194.332 260.144 194.332 260.61C194.332 261.091 194.22 261.519 193.998 261.896C193.778 262.27 193.471 262.564 193.078 262.78C192.688 262.993 192.235 263.099 191.722 263.099ZM195.788 263L198.881 256.878V256.828H195.29V255.727H200.244V256.853L197.155 263H195.788ZM205.279 261.636V261.253C205.279 260.971 205.338 260.712 205.456 260.475C205.577 260.238 205.752 260.048 205.982 259.903C206.212 259.759 206.49 259.687 206.817 259.687C207.153 259.687 207.434 259.759 207.662 259.903C207.889 260.045 208.061 260.235 208.177 260.472C208.295 260.708 208.354 260.969 208.354 261.253V261.636C208.354 261.918 208.295 262.177 208.177 262.414C208.058 262.651 207.884 262.841 207.655 262.986C207.427 263.13 207.148 263.202 206.817 263.202C206.485 263.202 206.205 263.13 205.975 262.986C205.745 262.841 205.571 262.651 205.453 262.414C205.337 262.177 205.279 261.918 205.279 261.636ZM206.206 261.253V261.636C206.206 261.823 206.251 261.995 206.341 262.151C206.431 262.308 206.589 262.386 206.817 262.386C207.046 262.386 207.204 262.309 207.289 262.155C207.376 261.999 207.42 261.826 207.42 261.636V261.253C207.42 261.063 207.379 260.891 207.296 260.734C207.213 260.576 207.053 260.496 206.817 260.496C206.594 260.496 206.437 260.576 206.344 260.734C206.252 260.891 206.206 261.063 206.206 261.253ZM201.582 257.474V257.091C201.582 256.807 201.643 256.546 201.763 256.31C201.884 256.073 202.059 255.884 202.289 255.741C202.519 255.597 202.797 255.525 203.123 255.525C203.457 255.525 203.738 255.597 203.965 255.741C204.195 255.884 204.367 256.073 204.483 256.31C204.599 256.546 204.657 256.807 204.657 257.091V257.474C204.657 257.759 204.598 258.019 204.48 258.256C204.364 258.49 204.191 258.678 203.961 258.82C203.732 258.962 203.452 259.033 203.123 259.033C202.79 259.033 202.508 258.962 202.278 258.82C202.051 258.678 201.878 258.489 201.76 258.252C201.641 258.015 201.582 257.756 201.582 257.474ZM202.516 257.091V257.474C202.516 257.664 202.56 257.837 202.648 257.993C202.738 258.147 202.896 258.224 203.123 258.224C203.351 258.224 203.507 258.147 203.592 257.993C203.68 257.837 203.724 257.664 203.724 257.474V257.091C203.724 256.902 203.682 256.729 203.599 256.572C203.516 256.414 203.358 256.335 203.123 256.335C202.898 256.335 202.741 256.414 202.651 256.572C202.561 256.731 202.516 256.904 202.516 257.091ZM201.987 263L206.987 255.727H207.875L202.875 263H201.987ZM212.642 260.035C212.642 259.147 212.759 258.331 212.994 257.588C213.231 256.842 213.582 256.153 214.048 255.521H215.259C215.079 255.756 214.911 256.043 214.755 256.384C214.599 256.723 214.463 257.094 214.347 257.499C214.233 257.902 214.143 258.32 214.077 258.753C214.013 259.186 213.981 259.613 213.981 260.035C213.981 260.596 214.037 261.164 214.148 261.739C214.262 262.315 214.414 262.847 214.606 263.337C214.8 263.83 215.018 264.232 215.259 264.545H214.048C213.582 263.913 213.231 263.225 212.994 262.482C212.759 261.736 212.642 260.92 212.642 260.035ZM216.244 263V262.048L218.769 259.573C219.01 259.329 219.212 259.113 219.373 258.923C219.533 258.734 219.654 258.55 219.735 258.373C219.815 258.195 219.855 258.006 219.855 257.805C219.855 257.575 219.803 257.379 219.699 257.215C219.595 257.049 219.452 256.922 219.27 256.832C219.087 256.742 218.88 256.697 218.648 256.697C218.409 256.697 218.199 256.746 218.02 256.846C217.84 256.943 217.7 257.081 217.6 257.261C217.503 257.441 217.455 257.656 217.455 257.904H216.201C216.201 257.442 216.307 257.041 216.517 256.7C216.728 256.359 217.018 256.095 217.387 255.908C217.759 255.721 218.185 255.628 218.666 255.628C219.154 255.628 219.582 255.719 219.951 255.901C220.321 256.084 220.607 256.333 220.811 256.651C221.017 256.968 221.12 257.33 221.12 257.737C221.12 258.009 221.068 258.277 220.963 258.54C220.859 258.803 220.676 259.094 220.413 259.413C220.153 259.733 219.787 260.12 219.316 260.575L218.062 261.849V261.899H221.23V263H216.244ZM222.167 261.651V260.603L225.253 255.727H226.127V257.219H225.594L223.517 260.511V260.567H227.824V261.651H222.167ZM225.637 263V261.331L225.651 260.862V255.727H226.894V263H225.637ZM230.259 259.804V263H228.973V255.727H230.23V258.472H230.294C230.422 258.165 230.62 257.922 230.887 257.744C231.157 257.564 231.5 257.474 231.917 257.474C232.296 257.474 232.626 257.554 232.908 257.712C233.189 257.871 233.407 258.103 233.561 258.408C233.717 258.714 233.795 259.087 233.795 259.527V263H232.51V259.726C232.51 259.359 232.415 259.074 232.226 258.87C232.039 258.664 231.776 258.561 231.438 258.561C231.21 258.561 231.007 258.611 230.827 258.71C230.649 258.807 230.509 258.948 230.408 259.133C230.308 259.317 230.259 259.541 230.259 259.804ZM237.4 260.035C237.4 260.92 237.281 261.736 237.045 262.482C236.81 263.225 236.46 263.913 235.994 264.545H234.783C234.965 264.31 235.133 264.024 235.287 263.685C235.443 263.347 235.578 262.975 235.692 262.57C235.808 262.165 235.898 261.746 235.962 261.313C236.028 260.88 236.061 260.454 236.061 260.035C236.061 259.474 236.004 258.906 235.891 258.33C235.779 257.755 235.627 257.221 235.433 256.729C235.241 256.236 235.024 255.834 234.783 255.521H235.994C236.46 256.153 236.81 256.842 237.045 257.588C237.281 258.331 237.4 259.147 237.4 260.035Z" fill="#5DCE00"/>
<path d="M168.188 259.5H169V255.438H164.938V256.25H167.61L163.312 260.547L160.875 258.11L156.019 262.972L156.59 263.543L160.875 259.265L163.312 261.703L168.188 256.828V259.5Z" fill="#5DCE00"/>
<path d="M166.264 127V112.455H172.088C173.158 112.455 174.051 112.613 174.766 112.93C175.481 113.248 176.018 113.688 176.378 114.251C176.738 114.81 176.918 115.454 176.918 116.183C176.918 116.751 176.804 117.251 176.577 117.682C176.349 118.108 176.037 118.458 175.639 118.733C175.246 119.003 174.796 119.195 174.29 119.308V119.45C174.844 119.474 175.362 119.63 175.845 119.919C176.333 120.208 176.728 120.613 177.031 121.134C177.334 121.65 177.486 122.265 177.486 122.98C177.486 123.752 177.294 124.441 176.911 125.047C176.532 125.648 175.971 126.124 175.227 126.474C174.484 126.825 173.568 127 172.479 127H166.264ZM169.339 124.486H171.847C172.704 124.486 173.329 124.322 173.722 123.996C174.115 123.664 174.311 123.224 174.311 122.675C174.311 122.272 174.214 121.917 174.02 121.609C173.826 121.302 173.549 121.06 173.189 120.885C172.834 120.71 172.41 120.622 171.918 120.622H169.339V124.486ZM169.339 118.541H171.619C172.041 118.541 172.415 118.468 172.741 118.321C173.073 118.17 173.333 117.956 173.523 117.682C173.717 117.407 173.814 117.078 173.814 116.695C173.814 116.169 173.627 115.745 173.253 115.423C172.884 115.101 172.358 114.94 171.676 114.94H169.339V118.541ZM179.43 127V116.091H182.456V127H179.43ZM180.95 114.685C180.5 114.685 180.114 114.536 179.792 114.237C179.475 113.934 179.316 113.572 179.316 113.151C179.316 112.734 179.475 112.376 179.792 112.078C180.114 111.775 180.5 111.624 180.95 111.624C181.4 111.624 181.783 111.775 182.1 112.078C182.422 112.376 182.583 112.734 182.583 113.151C182.583 113.572 182.422 113.934 182.1 114.237C181.783 114.536 181.4 114.685 180.95 114.685ZM190.682 116.091V118.364H184.112V116.091H190.682ZM185.604 113.477H188.629V123.648C188.629 123.927 188.672 124.145 188.757 124.301C188.842 124.453 188.961 124.559 189.112 124.621C189.268 124.682 189.448 124.713 189.652 124.713C189.794 124.713 189.936 124.701 190.078 124.678C190.22 124.649 190.329 124.628 190.405 124.614L190.881 126.865C190.729 126.912 190.516 126.967 190.241 127.028C189.967 127.095 189.633 127.135 189.24 127.149C188.511 127.178 187.872 127.08 187.322 126.858C186.778 126.635 186.354 126.29 186.051 125.821C185.748 125.352 185.599 124.76 185.604 124.045V113.477ZM197.464 127.213C196.347 127.213 195.386 126.976 194.581 126.503C193.781 126.025 193.165 125.362 192.734 124.514C192.308 123.667 192.095 122.691 192.095 121.588C192.095 120.471 192.311 119.491 192.741 118.648C193.177 117.8 193.795 117.14 194.595 116.666C195.395 116.188 196.347 115.949 197.45 115.949C198.402 115.949 199.235 116.122 199.95 116.467C200.665 116.813 201.231 117.298 201.648 117.923C202.064 118.548 202.294 119.282 202.337 120.125H199.482C199.401 119.58 199.188 119.143 198.842 118.811C198.501 118.475 198.054 118.307 197.5 118.307C197.031 118.307 196.622 118.435 196.271 118.69C195.926 118.941 195.656 119.308 195.462 119.791C195.268 120.274 195.17 120.859 195.17 121.545C195.17 122.241 195.265 122.833 195.455 123.321C195.649 123.809 195.921 124.18 196.271 124.436C196.622 124.692 197.031 124.82 197.5 124.82C197.846 124.82 198.156 124.749 198.43 124.607C198.71 124.464 198.939 124.259 199.119 123.989C199.304 123.714 199.425 123.385 199.482 123.001H202.337C202.289 123.835 202.062 124.569 201.655 125.203C201.252 125.833 200.696 126.325 199.986 126.68C199.276 127.036 198.435 127.213 197.464 127.213ZM209.203 127.213C208.1 127.213 207.145 126.979 206.341 126.51C205.54 126.036 204.922 125.378 204.487 124.536C204.051 123.688 203.833 122.705 203.833 121.588C203.833 120.461 204.051 119.476 204.487 118.634C204.922 117.786 205.54 117.128 206.341 116.659C207.145 116.186 208.1 115.949 209.203 115.949C210.306 115.949 211.258 116.186 212.058 116.659C212.863 117.128 213.483 117.786 213.919 118.634C214.354 119.476 214.572 120.461 214.572 121.588C214.572 122.705 214.354 123.688 213.919 124.536C213.483 125.378 212.863 126.036 212.058 126.51C211.258 126.979 210.306 127.213 209.203 127.213ZM209.217 124.869C209.719 124.869 210.138 124.727 210.474 124.443C210.81 124.154 211.064 123.761 211.234 123.264C211.409 122.767 211.497 122.201 211.497 121.567C211.497 120.932 211.409 120.366 211.234 119.869C211.064 119.372 210.81 118.979 210.474 118.69C210.138 118.402 209.719 118.257 209.217 118.257C208.71 118.257 208.284 118.402 207.939 118.69C207.598 118.979 207.34 119.372 207.164 119.869C206.994 120.366 206.909 120.932 206.909 121.567C206.909 122.201 206.994 122.767 207.164 123.264C207.34 123.761 207.598 124.154 207.939 124.443C208.284 124.727 208.71 124.869 209.217 124.869ZM216.539 127V116.091H219.565V127H216.539ZM218.059 114.685C217.609 114.685 217.224 114.536 216.902 114.237C216.584 113.934 216.426 113.572 216.426 113.151C216.426 112.734 216.584 112.376 216.902 112.078C217.224 111.775 217.609 111.624 218.059 111.624C218.509 111.624 218.893 111.775 219.21 112.078C219.532 112.376 219.693 112.734 219.693 113.151C219.693 113.572 219.532 113.934 219.21 114.237C218.893 114.536 218.509 114.685 218.059 114.685ZM225.014 120.693V127H221.989V116.091H224.872V118.016H225C225.241 117.381 225.646 116.879 226.214 116.51C226.783 116.136 227.472 115.949 228.281 115.949C229.039 115.949 229.699 116.115 230.263 116.446C230.826 116.777 231.264 117.251 231.577 117.866C231.889 118.477 232.045 119.206 232.045 120.054V127H229.02V120.594C229.025 119.926 228.854 119.405 228.509 119.031C228.163 118.652 227.687 118.463 227.081 118.463C226.674 118.463 226.314 118.551 226.001 118.726C225.694 118.901 225.452 119.157 225.277 119.493C225.107 119.824 225.019 120.224 225.014 120.693Z" fill="white"/>
<path d="M244.145 127V117.545H247.45C248.109 117.545 248.652 117.659 249.08 117.887C249.508 118.112 249.826 118.415 250.036 118.797C250.245 119.175 250.349 119.595 250.349 120.057C250.349 120.463 250.277 120.799 250.132 121.063C249.991 121.328 249.803 121.537 249.569 121.691C249.338 121.845 249.088 121.959 248.817 122.033V122.125C249.106 122.143 249.397 122.245 249.689 122.43C249.982 122.614 250.226 122.879 250.423 123.224C250.62 123.568 250.719 123.99 250.719 124.489C250.719 124.963 250.611 125.389 250.396 125.767C250.18 126.146 249.84 126.446 249.375 126.668C248.911 126.889 248.306 127 247.561 127H244.145ZM245.29 125.984H247.561C248.309 125.984 248.84 125.84 249.154 125.55C249.471 125.258 249.629 124.904 249.629 124.489C249.629 124.169 249.548 123.873 249.385 123.602C249.221 123.328 248.989 123.11 248.688 122.947C248.386 122.781 248.029 122.697 247.616 122.697H245.29V125.984ZM245.29 121.7H247.413C247.758 121.7 248.069 121.633 248.346 121.497C248.626 121.362 248.848 121.171 249.011 120.925C249.177 120.679 249.26 120.389 249.26 120.057C249.26 119.641 249.115 119.289 248.826 119C248.537 118.707 248.078 118.561 247.45 118.561H245.29V121.7ZM252.083 118.561V117.545H259.174V118.561H256.201V127H255.056V118.561H252.083ZM268.155 120.5H267.01C266.943 120.171 266.824 119.881 266.655 119.632C266.489 119.383 266.286 119.174 266.045 119.004C265.808 118.832 265.545 118.703 265.256 118.616C264.967 118.53 264.665 118.487 264.351 118.487C263.779 118.487 263.26 118.632 262.795 118.921C262.334 119.21 261.966 119.637 261.692 120.2C261.421 120.763 261.286 121.454 261.286 122.273C261.286 123.091 261.421 123.782 261.692 124.346C261.966 124.909 262.334 125.335 262.795 125.624C263.26 125.914 263.779 126.058 264.351 126.058C264.665 126.058 264.967 126.015 265.256 125.929C265.545 125.843 265.808 125.715 266.045 125.546C266.286 125.373 266.489 125.163 266.655 124.913C266.824 124.661 266.943 124.372 267.01 124.045H268.155C268.069 124.529 267.912 124.961 267.684 125.343C267.457 125.724 267.173 126.049 266.835 126.317C266.496 126.581 266.116 126.783 265.695 126.922C265.276 127.06 264.828 127.129 264.351 127.129C263.545 127.129 262.828 126.932 262.2 126.538C261.572 126.144 261.078 125.584 260.718 124.858C260.358 124.132 260.178 123.27 260.178 122.273C260.178 121.276 260.358 120.414 260.718 119.688C261.078 118.961 261.572 118.401 262.2 118.007C262.828 117.613 263.545 117.416 264.351 117.416C264.828 117.416 265.276 117.485 265.695 117.624C266.116 117.762 266.496 117.966 266.835 118.233C267.173 118.498 267.457 118.821 267.684 119.203C267.912 119.581 268.069 120.014 268.155 120.5Z" fill="#A5A5A5"/>
<path fill-rule="evenodd" clip-rule="evenodd" d="M155.788 120.164C155.788 129.092 148.448 136.329 139.394 136.329C130.34 136.329 123 129.092 123 120.164C123 111.237 130.34 104 139.394 104C148.448 104 155.788 111.237 155.788 120.164ZM143.333 114.159C145.613 114.931 147.281 116.087 146.954 118.239C146.716 119.814 145.827 120.576 144.646 120.843C146.267 121.672 146.819 123.245 146.306 125.146C145.331 127.883 143.015 128.114 139.934 127.542L139.185 130.484L137.379 130.041L138.117 127.138C137.649 127.024 137.17 126.902 136.677 126.772L135.937 129.688L134.133 129.246L134.88 126.298L131.242 125.396L132.139 123.365C132.139 123.365 133.471 123.711 133.452 123.686C133.964 123.81 134.191 123.483 134.281 123.266L136.308 115.28C136.331 114.903 136.198 114.429 135.466 114.249C135.494 114.229 134.154 113.928 134.154 113.928L134.635 112.033L138.278 112.92L139.019 110.005L140.824 110.448L140.098 113.305C140.584 113.413 141.072 113.523 141.546 113.639L142.267 110.8L144.073 111.243L143.333 114.159ZM139.011 119.021C140.241 119.342 142.918 120.042 143.385 118.207C143.861 116.33 141.26 115.763 139.987 115.486C139.843 115.454 139.715 115.426 139.611 115.401L138.712 118.944C138.798 118.965 138.898 118.991 139.011 119.021ZM137.617 124.726C139.091 125.108 142.313 125.945 142.826 123.924C143.351 121.856 140.227 121.168 138.702 120.832C138.532 120.794 138.381 120.761 138.258 120.731L137.266 124.636C137.367 124.661 137.485 124.691 137.617 124.726Z" fill="#F7931A"/>
<rect x="93" y="309" width="37" height="26" rx="13" fill="#FF5E00"/>
<path d="M60.6857 317.545V327H58.973V319.212H58.9176L56.7063 320.625V319.055L59.0561 317.545H60.6857ZM63.1786 327V317.545H64.8913V321.548H69.2724V317.545H70.9897V327H69.2724V322.984H64.8913V327H63.1786Z" fill="#A5A5A5"/>
<path d="M108.732 317.545V327H107.02V319.212H106.964L104.753 320.625V319.055L107.103 317.545H108.732ZM114.429 327H111.225V317.545H114.494C115.432 317.545 116.239 317.735 116.913 318.113C117.59 318.489 118.11 319.029 118.473 319.734C118.836 320.438 119.018 321.282 119.018 322.263C119.018 323.248 118.835 324.095 118.469 324.803C118.105 325.51 117.581 326.054 116.894 326.432C116.211 326.811 115.389 327 114.429 327ZM112.938 325.518H114.346C115.005 325.518 115.554 325.398 115.994 325.158C116.434 324.915 116.765 324.553 116.987 324.073C117.208 323.59 117.319 322.987 117.319 322.263C117.319 321.54 117.208 320.94 116.987 320.463C116.765 319.983 116.437 319.624 116.003 319.387C115.572 319.147 115.037 319.027 114.397 319.027H112.938V325.518Z" fill="white"/>
<path d="M304.204 327H302.375L305.704 317.545H307.818L311.151 327H309.323L306.798 319.484H306.724L304.204 327ZM304.264 323.293H309.249V324.669H304.264V323.293ZM312.397 327V317.545H314.109V325.564H318.273V327H312.397ZM319.76 327V317.545H321.473V325.564H325.637V327H319.76Z" fill="#A5A5A5"/>
<path d="M156.779 317.545V327H155.066V319.212H155.011L152.8 320.625V319.055L155.149 317.545H156.779ZM161.262 327L158.593 317.545H160.435L162.139 324.493H162.226L164.045 317.545H165.721L167.545 324.498H167.628L169.331 317.545H171.173L168.505 327H166.815L164.922 320.366H164.849L162.951 327H161.262Z" fill="#A5A5A5"/>
<path d="M209.194 317.545V327H207.481V319.212H207.425L205.214 320.625V319.055L207.564 317.545H209.194ZM211.686 317.545H213.782L216.589 324.396H216.7L219.507 317.545H221.603V327H219.959V320.505H219.871L217.259 326.972H216.031L213.418 320.491H213.33V327H211.686V317.545Z" fill="#A5A5A5"/>
<path d="M260.152 317.545V327H258.439V319.212H258.384L256.173 320.625V319.055L258.522 317.545H260.152ZM261.999 317.545H263.933L266.246 321.728H266.338L268.651 317.545H270.585L267.146 323.473V327H265.438V323.473L261.999 317.545Z" fill="#A5A5A5"/>
<rect x="39.5" y="347.5" width="316" height="222" rx="25.5" fill="#484848" fill-opacity="0.07" stroke="#232323"/>
<rect x="39" y="599" width="119.717" height="48" rx="24" fill="#FF5E00"/>
<path d="M85.9296 628V617.091H90.2975C91.1001 617.091 91.7694 617.21 92.3057 617.448C92.8419 617.686 93.2449 618.016 93.5148 618.439C93.7847 618.858 93.9197 619.341 93.9197 619.887C93.9197 620.314 93.8344 620.688 93.664 621.011C93.4935 621.331 93.2591 621.594 92.9608 621.8C92.6661 622.002 92.3287 622.146 91.9488 622.231V622.338C92.3643 622.355 92.7531 622.473 93.1153 622.689C93.4811 622.906 93.7776 623.21 94.0049 623.6C94.2322 623.987 94.3458 624.449 94.3458 624.985C94.3458 625.564 94.202 626.081 93.9143 626.535C93.6302 626.986 93.2094 627.343 92.6519 627.606C92.0944 627.869 91.4072 628 90.5905 628H85.9296ZM88.2361 626.114H90.1164C90.7591 626.114 91.2279 625.992 91.5226 625.747C91.8174 625.498 91.9648 625.168 91.9648 624.756C91.9648 624.454 91.892 624.188 91.7464 623.957C91.6008 623.726 91.393 623.545 91.1231 623.414C90.8568 623.282 90.539 623.217 90.1697 623.217H88.2361V626.114ZM88.2361 621.656H89.9459C90.262 621.656 90.5425 621.601 90.7876 621.491C91.0361 621.377 91.2314 621.217 91.3735 621.011C91.5191 620.805 91.5919 620.559 91.5919 620.271C91.5919 619.877 91.4516 619.559 91.1711 619.317C90.8941 619.076 90.4999 618.955 89.9885 618.955H88.2361V621.656ZM101.051 624.516V619.818H103.32V628H101.141V626.514H101.056C100.871 626.993 100.564 627.379 100.135 627.67C99.7085 627.961 99.1882 628.107 98.5739 628.107C98.027 628.107 97.5458 627.982 97.1303 627.734C96.7148 627.485 96.3899 627.132 96.1555 626.674C95.9247 626.216 95.8075 625.667 95.804 625.028V619.818H98.0732V624.623C98.0767 625.106 98.2063 625.488 98.462 625.768C98.7177 626.049 99.0604 626.189 99.4901 626.189C99.7635 626.189 100.019 626.127 100.257 626.002C100.495 625.875 100.687 625.686 100.832 625.438C100.982 625.189 101.054 624.882 101.051 624.516ZM106.536 631.068C106.248 631.068 105.978 631.045 105.726 630.999C105.478 630.956 105.272 630.901 105.108 630.834L105.62 629.14C105.886 629.222 106.126 629.266 106.339 629.273C106.555 629.28 106.742 629.23 106.898 629.124C107.058 629.017 107.188 628.836 107.287 628.581L107.42 628.234L104.485 619.818H106.872L108.565 625.827H108.651L110.361 619.818H112.763L109.583 628.884C109.43 629.325 109.222 629.708 108.96 630.035C108.7 630.365 108.372 630.619 107.974 630.797C107.576 630.978 107.097 631.068 106.536 631.068Z" fill="white"/>
<g filter="url(#filter0_d_15_490)">
<circle cx="332" cy="623" r="23.95" fill="#1E1E1E" stroke="#636363" stroke-width="0.1"/>
<path d="M335.09 613.679C334.983 613.564 334.854 613.472 334.711 613.409C334.567 613.345 334.413 613.31 334.256 613.308C334.099 613.305 333.943 613.334 333.798 613.392C333.652 613.451 333.52 613.539 333.409 613.65C333.298 613.76 333.211 613.893 333.152 614.038C333.093 614.184 333.064 614.339 333.067 614.496C333.07 614.653 333.104 614.808 333.168 614.951C333.232 615.094 333.324 615.223 333.439 615.33L335.339 617.231H324.918C324.608 617.231 324.311 617.354 324.092 617.573C323.873 617.792 323.75 618.089 323.75 618.399C323.75 618.709 323.873 619.006 324.092 619.225C324.311 619.444 324.608 619.567 324.918 619.567H335.339L333.439 621.468C333.232 621.689 333.12 621.982 333.125 622.285C333.131 622.587 333.253 622.876 333.467 623.09C333.682 623.304 333.97 623.427 334.273 623.432C334.576 623.438 334.869 623.325 335.09 623.119L338.984 619.225C339.203 619.006 339.326 618.709 339.326 618.399C339.326 618.089 339.203 617.792 338.984 617.573L335.09 613.679ZM329.638 625.455C329.844 625.234 329.957 624.941 329.951 624.638C329.946 624.336 329.823 624.047 329.609 623.833C329.395 623.619 329.107 623.496 328.804 623.491C328.501 623.485 328.208 623.598 327.987 623.804L324.093 627.698C323.874 627.917 323.751 628.214 323.751 628.524C323.751 628.834 323.874 629.131 324.093 629.35L327.987 633.244C328.208 633.45 328.501 633.563 328.804 633.557C329.107 633.552 329.395 633.429 329.609 633.215C329.823 633.001 329.946 632.712 329.951 632.41C329.957 632.107 329.844 631.814 329.638 631.593L327.738 629.692H338.159C338.468 629.692 338.766 629.569 338.985 629.35C339.204 629.131 339.327 628.834 339.327 628.524C339.327 628.214 339.204 627.917 338.985 627.698C338.766 627.479 338.468 627.356 338.159 627.356H327.738L329.638 625.455Z" fill="white"/>
</g>
<rect x="173.5" y="599.5" width="119" height="47" rx="23.5" fill="#171717" stroke="#232323"/>
<path d="M226.179 620.228C226.136 619.799 225.953 619.465 225.63 619.227C225.307 618.989 224.869 618.87 224.315 618.87C223.938 618.87 223.62 618.923 223.361 619.03C223.102 619.133 222.903 619.277 222.765 619.461C222.63 619.646 222.562 619.855 222.562 620.09C222.555 620.285 222.596 620.456 222.685 620.601C222.777 620.747 222.903 620.873 223.063 620.979C223.223 621.082 223.407 621.173 223.617 621.251C223.826 621.326 224.05 621.39 224.288 621.443L225.268 621.677C225.744 621.784 226.181 621.926 226.578 622.103C226.976 622.281 227.321 622.499 227.612 622.759C227.903 623.018 228.129 623.323 228.288 623.675C228.452 624.026 228.535 624.429 228.539 624.884C228.535 625.551 228.365 626.13 228.027 626.62C227.694 627.107 227.211 627.485 226.578 627.755C225.95 628.021 225.192 628.154 224.304 628.154C223.423 628.154 222.656 628.02 222.003 627.75C221.353 627.48 220.845 627.08 220.479 626.551C220.117 626.018 219.927 625.36 219.909 624.575H222.141C222.166 624.941 222.271 625.246 222.456 625.491C222.644 625.733 222.894 625.915 223.207 626.04C223.523 626.161 223.88 626.221 224.277 626.221C224.668 626.221 225.007 626.164 225.295 626.05C225.586 625.937 225.811 625.779 225.971 625.576C226.131 625.374 226.211 625.141 226.211 624.879C226.211 624.634 226.138 624.428 225.993 624.261C225.85 624.094 225.641 623.952 225.364 623.835C225.091 623.717 224.755 623.611 224.357 623.515L223.169 623.217C222.25 622.993 221.523 622.643 220.991 622.167C220.458 621.691 220.194 621.05 220.197 620.244C220.194 619.584 220.369 619.007 220.724 618.513C221.083 618.02 221.575 617.634 222.2 617.357C222.825 617.08 223.535 616.942 224.331 616.942C225.14 616.942 225.847 617.08 226.451 617.357C227.058 617.634 227.53 618.02 227.868 618.513C228.205 619.007 228.379 619.578 228.39 620.228H226.179ZM233.776 628.16C232.935 628.16 232.21 627.989 231.603 627.648C230.999 627.304 230.534 626.817 230.207 626.189C229.881 625.557 229.717 624.809 229.717 623.946C229.717 623.105 229.881 622.366 230.207 621.73C230.534 621.095 230.994 620.599 231.587 620.244C232.184 619.889 232.883 619.712 233.686 619.712C234.225 619.712 234.728 619.799 235.193 619.973C235.662 620.143 236.07 620.401 236.418 620.745C236.77 621.089 237.043 621.523 237.239 622.045C237.434 622.563 237.532 623.17 237.532 623.866V624.49H230.623V623.083H235.396C235.396 622.757 235.324 622.467 235.182 622.215C235.04 621.963 234.843 621.766 234.591 621.624C234.343 621.478 234.053 621.406 233.723 621.406C233.378 621.406 233.073 621.485 232.807 621.645C232.544 621.801 232.338 622.013 232.189 622.279C232.04 622.542 231.963 622.835 231.96 623.158V624.495C231.96 624.9 232.034 625.25 232.184 625.544C232.336 625.839 232.551 626.066 232.828 626.226C233.105 626.386 233.434 626.466 233.813 626.466C234.066 626.466 234.296 626.43 234.506 626.359C234.715 626.288 234.895 626.182 235.044 626.04C235.193 625.898 235.307 625.724 235.385 625.518L237.484 625.656C237.377 626.161 237.159 626.601 236.828 626.977C236.502 627.35 236.079 627.641 235.561 627.851C235.046 628.057 234.451 628.16 233.776 628.16ZM241.282 617.091V628H239.012V617.091H241.282ZM245.368 617.091V628H243.099V617.091H245.368Z" fill="white"/>
<path d="M40.517 699V681.545H44.2074V695.957H51.6903V699H40.517ZM54.0661 699V685.909H57.6967V699H54.0661ZM55.8899 684.222C55.3501 684.222 54.8871 684.043 54.5007 683.685C54.12 683.321 53.9297 682.886 53.9297 682.381C53.9297 681.881 54.12 681.452 54.5007 681.094C54.8871 680.73 55.3501 680.548 55.8899 680.548C56.4297 680.548 56.8899 680.73 57.2706 681.094C57.657 681.452 57.8501 681.881 57.8501 682.381C57.8501 682.886 57.657 683.321 57.2706 683.685C56.8899 684.043 56.4297 684.222 55.8899 684.222ZM64.2358 691.432V699H60.6051V685.909H64.0653V688.219H64.2188C64.5085 687.457 64.9943 686.855 65.6761 686.412C66.358 685.963 67.1847 685.739 68.1562 685.739C69.0653 685.739 69.858 685.938 70.5341 686.335C71.2102 686.733 71.7358 687.301 72.1108 688.04C72.4858 688.773 72.6733 689.648 72.6733 690.665V699H69.0426V691.312C69.0483 690.511 68.8438 689.886 68.429 689.438C68.0142 688.983 67.4432 688.756 66.7159 688.756C66.2273 688.756 65.7955 688.861 65.4205 689.071C65.0511 689.281 64.7614 689.588 64.5511 689.991C64.3466 690.389 64.2415 690.869 64.2358 691.432ZM78.8246 695.233L78.8331 690.878H79.3615L83.5547 685.909H87.7223L82.0888 692.489H81.228L78.8246 695.233ZM75.5348 699V681.545H79.1655V699H75.5348ZM83.7166 699L79.8643 693.298L82.2848 690.733L87.9695 699H83.7166ZM100.396 689.642L97.0717 689.847C97.0149 689.562 96.8928 689.307 96.7053 689.08C96.5178 688.847 96.2706 688.662 95.9638 688.526C95.6626 688.384 95.3018 688.312 94.8814 688.312C94.3189 688.312 93.8445 688.432 93.4581 688.67C93.0717 688.903 92.8786 689.216 92.8786 689.608C92.8786 689.92 93.0036 690.185 93.2536 690.401C93.5036 690.616 93.9325 690.79 94.5405 690.92L96.9098 691.398C98.1825 691.659 99.1314 692.08 99.7564 692.659C100.381 693.239 100.694 694 100.694 694.943C100.694 695.801 100.441 696.554 99.9354 697.202C99.4354 697.849 98.7479 698.355 97.8729 698.719C97.0036 699.077 96.0007 699.256 94.8643 699.256C93.1314 699.256 91.7507 698.895 90.7223 698.173C89.6996 697.446 89.1001 696.457 88.924 695.207L92.495 695.02C92.603 695.548 92.8643 695.952 93.2791 696.23C93.6939 696.503 94.2251 696.639 94.8729 696.639C95.5092 696.639 96.0206 696.517 96.407 696.273C96.799 696.023 96.9979 695.702 97.0036 695.31C96.9979 694.98 96.8587 694.71 96.5859 694.5C96.3132 694.284 95.8928 694.119 95.3246 694.006L93.0575 693.554C91.7791 693.298 90.8274 692.855 90.2024 692.224C89.5831 691.594 89.2734 690.79 89.2734 689.812C89.2734 688.972 89.5007 688.247 89.9553 687.639C90.4155 687.031 91.0604 686.562 91.8899 686.233C92.7251 685.903 93.7024 685.739 94.8217 685.739C96.4751 685.739 97.7763 686.088 98.7251 686.787C99.6797 687.486 100.237 688.437 100.396 689.642Z" fill="white"/>
<rect x="18.5" y="729.5" width="357" height="75" rx="37.5" fill="#171717" stroke="#232323"/>
<path d="M112.675 766.545C112.675 767.71 112.462 768.712 112.036 769.55C111.609 770.384 111.025 771.027 110.283 771.478C109.544 771.925 108.705 772.149 107.763 772.149C106.819 772.149 105.975 771.925 105.233 771.478C104.495 771.027 103.912 770.382 103.486 769.544C103.06 768.706 102.847 767.707 102.847 766.545C102.847 765.381 103.06 764.381 103.486 763.547C103.912 762.708 104.495 762.066 105.233 761.618C105.975 761.167 106.819 760.942 107.763 760.942C108.705 760.942 109.544 761.167 110.283 761.618C111.025 762.066 111.609 762.708 112.036 763.547C112.462 764.381 112.675 765.381 112.675 766.545ZM111.045 766.545C111.045 765.658 110.901 764.91 110.613 764.303C110.329 763.692 109.939 763.23 109.441 762.918C108.948 762.602 108.388 762.444 107.763 762.444C107.135 762.444 106.574 762.602 106.08 762.918C105.587 763.23 105.196 763.692 104.908 764.303C104.624 764.91 104.482 765.658 104.482 766.545C104.482 767.433 104.624 768.183 104.908 768.793C105.196 769.401 105.587 769.862 106.08 770.178C106.574 770.491 107.135 770.647 107.763 770.647C108.388 770.647 108.948 770.491 109.441 770.178C109.939 769.862 110.329 769.401 110.613 768.793C110.901 768.183 111.045 767.433 111.045 766.545ZM118.493 763.818V765.097H113.869V763.818H118.493ZM115.137 772V762.87C115.137 762.359 115.249 761.934 115.473 761.597C115.696 761.256 115.993 761.002 116.362 760.835C116.731 760.665 117.133 760.58 117.566 760.58C117.886 760.58 118.159 760.606 118.386 760.659C118.614 760.709 118.782 760.755 118.892 760.798L118.519 762.087C118.445 762.066 118.349 762.041 118.232 762.012C118.115 761.98 117.973 761.964 117.806 761.964C117.419 761.964 117.142 762.06 116.975 762.252C116.811 762.444 116.73 762.721 116.73 763.083V772H115.137ZM124.03 763.818V765.097H119.406V763.818H124.03ZM120.674 772V762.87C120.674 762.359 120.786 761.934 121.01 761.597C121.233 761.256 121.53 761.002 121.899 760.835C122.269 760.665 122.67 760.58 123.103 760.58C123.423 760.58 123.696 760.606 123.923 760.659C124.151 760.709 124.319 760.755 124.429 760.798L124.057 762.087C123.982 762.066 123.886 762.041 123.769 762.012C123.652 761.98 123.51 761.964 123.343 761.964C122.956 761.964 122.679 762.06 122.512 762.252C122.348 762.444 122.267 762.721 122.267 763.083V772H120.674ZM125.673 772V763.818H127.266V772H125.673ZM126.478 762.556C126.201 762.556 125.963 762.463 125.764 762.279C125.568 762.091 125.471 761.867 125.471 761.608C125.471 761.345 125.568 761.121 125.764 760.936C125.963 760.748 126.201 760.654 126.478 760.654C126.755 760.654 126.991 760.748 127.186 760.936C127.385 761.121 127.484 761.345 127.484 761.608C127.484 761.867 127.385 762.091 127.186 762.279C126.991 762.463 126.755 762.556 126.478 762.556ZM132.855 772.165C132.063 772.165 131.381 771.986 130.809 771.627C130.241 771.265 129.805 770.766 129.499 770.13C129.194 769.495 129.041 768.767 129.041 767.946C129.041 767.115 129.197 766.382 129.51 765.746C129.822 765.107 130.263 764.608 130.831 764.25C131.399 763.891 132.068 763.712 132.839 763.712C133.46 763.712 134.014 763.827 134.501 764.058C134.987 764.285 135.38 764.605 135.678 765.017C135.98 765.429 136.159 765.91 136.216 766.46H134.666C134.581 766.077 134.385 765.746 134.08 765.469C133.778 765.192 133.373 765.054 132.866 765.054C132.422 765.054 132.033 765.171 131.699 765.406C131.369 765.636 131.111 765.967 130.927 766.396C130.742 766.822 130.65 767.327 130.65 767.909C130.65 768.506 130.74 769.021 130.921 769.454C131.102 769.887 131.358 770.223 131.688 770.461C132.022 770.699 132.415 770.817 132.866 770.817C133.167 770.817 133.441 770.762 133.686 770.652C133.934 770.539 134.142 770.377 134.309 770.168C134.48 769.958 134.599 769.706 134.666 769.411H136.216C136.159 769.94 135.987 770.413 135.699 770.828C135.412 771.244 135.026 771.57 134.544 771.808C134.064 772.046 133.501 772.165 132.855 772.165ZM137.919 772V763.818H139.512V772H137.919ZM138.724 762.556C138.447 762.556 138.209 762.463 138.01 762.279C137.815 762.091 137.717 761.867 137.717 761.608C137.717 761.345 137.815 761.121 138.01 760.936C138.209 760.748 138.447 760.654 138.724 760.654C139.001 760.654 139.237 760.748 139.432 760.936C139.631 761.121 139.73 761.345 139.73 761.608C139.73 761.867 139.631 762.091 139.432 762.279C139.237 762.463 139.001 762.556 138.724 762.556ZM144.036 772.181C143.517 772.181 143.048 772.085 142.629 771.893C142.21 771.698 141.878 771.416 141.633 771.047C141.392 770.677 141.271 770.224 141.271 769.688C141.271 769.227 141.36 768.847 141.537 768.548C141.715 768.25 141.955 768.014 142.257 767.84C142.558 767.666 142.896 767.534 143.269 767.446C143.642 767.357 144.021 767.289 144.409 767.243C144.899 767.186 145.296 767.14 145.602 767.105C145.907 767.066 146.129 767.004 146.268 766.918C146.406 766.833 146.475 766.695 146.475 766.503V766.466C146.475 766 146.344 765.64 146.081 765.384C145.822 765.129 145.435 765.001 144.92 765.001C144.384 765.001 143.961 765.12 143.652 765.358C143.347 765.592 143.135 765.853 143.018 766.141L141.521 765.8C141.699 765.303 141.958 764.901 142.299 764.596C142.644 764.287 143.04 764.063 143.487 763.925C143.934 763.783 144.405 763.712 144.899 763.712C145.225 763.712 145.572 763.751 145.937 763.829C146.307 763.903 146.651 764.042 146.971 764.244C147.294 764.447 147.558 764.736 147.764 765.113C147.97 765.485 148.073 765.97 148.073 766.567V772H146.518V770.881H146.454C146.351 771.087 146.197 771.29 145.991 771.489C145.785 771.687 145.52 771.853 145.197 771.984C144.874 772.115 144.487 772.181 144.036 772.181ZM144.382 770.903C144.822 770.903 145.199 770.816 145.511 770.642C145.827 770.468 146.067 770.24 146.23 769.96C146.397 769.676 146.481 769.372 146.481 769.049V767.994C146.424 768.051 146.314 768.104 146.15 768.154C145.991 768.2 145.808 768.241 145.602 768.277C145.396 768.309 145.195 768.339 145 768.367C144.805 768.392 144.641 768.413 144.51 768.431C144.201 768.47 143.919 768.536 143.663 768.628C143.411 768.721 143.208 768.854 143.056 769.028C142.906 769.198 142.832 769.425 142.832 769.71C142.832 770.104 142.977 770.402 143.269 770.604C143.56 770.803 143.931 770.903 144.382 770.903ZM151.787 761.091V772H150.195V761.091H151.787ZM160.164 772L157.138 761.091H158.869L160.995 769.539H161.096L163.306 761.091H165.022L167.232 769.544H167.333L169.453 761.091H171.19L168.159 772H166.502L164.207 763.829H164.121L161.826 772H160.164ZM175.283 772.165C174.477 772.165 173.783 771.993 173.201 771.648C172.622 771.3 172.174 770.812 171.858 770.184C171.546 769.551 171.39 768.811 171.39 767.962C171.39 767.124 171.546 766.386 171.858 765.746C172.174 765.107 172.615 764.608 173.179 764.25C173.748 763.891 174.412 763.712 175.172 763.712C175.633 763.712 176.081 763.788 176.514 763.941C176.947 764.093 177.336 764.333 177.68 764.66C178.025 764.987 178.297 765.411 178.495 765.933C178.694 766.451 178.794 767.082 178.794 767.824V768.388H172.29V767.195H177.233C177.233 766.776 177.148 766.405 176.977 766.082C176.807 765.755 176.567 765.498 176.258 765.31C175.953 765.121 175.594 765.027 175.182 765.027C174.735 765.027 174.344 765.137 174.01 765.358C173.68 765.574 173.424 765.858 173.243 766.21C173.066 766.558 172.977 766.936 172.977 767.344V768.277C172.977 768.824 173.073 769.289 173.265 769.672C173.46 770.056 173.732 770.349 174.08 770.551C174.428 770.75 174.834 770.849 175.299 770.849C175.601 770.849 175.877 770.807 176.125 770.722C176.374 770.633 176.589 770.501 176.77 770.327C176.951 770.153 177.089 769.939 177.185 769.683L178.693 769.955C178.572 770.398 178.355 770.787 178.043 771.121C177.734 771.451 177.345 771.709 176.876 771.893C176.411 772.075 175.88 772.165 175.283 772.165ZM180.689 772V761.091H182.281V765.145H182.377C182.47 764.974 182.603 764.777 182.777 764.553C182.951 764.33 183.192 764.134 183.501 763.967C183.81 763.797 184.219 763.712 184.726 763.712C185.387 763.712 185.976 763.879 186.495 764.212C187.013 764.546 187.42 765.027 187.715 765.656C188.013 766.284 188.162 767.041 188.162 767.925C188.162 768.809 188.015 769.567 187.72 770.2C187.425 770.828 187.02 771.313 186.506 771.654C185.991 771.991 185.403 772.16 184.742 772.16C184.245 772.16 183.839 772.076 183.523 771.909C183.21 771.743 182.965 771.547 182.787 771.324C182.61 771.1 182.473 770.901 182.377 770.727H182.244V772H180.689ZM182.249 767.909C182.249 768.484 182.333 768.989 182.5 769.422C182.667 769.855 182.908 770.194 183.224 770.439C183.54 770.681 183.927 770.801 184.385 770.801C184.861 770.801 185.259 770.675 185.579 770.423C185.898 770.168 186.14 769.821 186.303 769.385C186.47 768.948 186.553 768.456 186.553 767.909C186.553 767.369 186.472 766.885 186.308 766.455C186.149 766.025 185.907 765.686 185.584 765.438C185.264 765.189 184.865 765.065 184.385 765.065C183.924 765.065 183.533 765.184 183.214 765.422C182.898 765.659 182.658 765.991 182.494 766.418C182.331 766.844 182.249 767.341 182.249 767.909ZM196.082 765.816L194.638 766.071C194.578 765.887 194.482 765.711 194.35 765.544C194.223 765.377 194.049 765.24 193.828 765.134C193.608 765.027 193.333 764.974 193.003 764.974C192.552 764.974 192.175 765.075 191.873 765.278C191.572 765.477 191.421 765.734 191.421 766.05C191.421 766.324 191.522 766.544 191.724 766.711C191.927 766.877 192.253 767.014 192.704 767.121L194.004 767.419C194.757 767.593 195.318 767.861 195.687 768.223C196.057 768.586 196.241 769.056 196.241 769.635C196.241 770.125 196.099 770.562 195.815 770.945C195.535 771.325 195.142 771.624 194.638 771.84C194.137 772.057 193.557 772.165 192.896 772.165C191.98 772.165 191.233 771.97 190.654 771.579C190.075 771.185 189.72 770.626 189.588 769.901L191.128 769.667C191.224 770.068 191.421 770.372 191.719 770.578C192.017 770.78 192.406 770.881 192.886 770.881C193.408 770.881 193.825 770.773 194.137 770.556C194.45 770.336 194.606 770.068 194.606 769.752C194.606 769.496 194.51 769.282 194.318 769.108C194.13 768.934 193.841 768.802 193.45 768.713L192.065 768.41C191.302 768.236 190.737 767.959 190.371 767.579C190.009 767.199 189.828 766.718 189.828 766.135C189.828 765.652 189.963 765.23 190.233 764.868C190.503 764.505 190.876 764.223 191.351 764.021C191.827 763.815 192.372 763.712 192.987 763.712C193.871 763.712 194.567 763.903 195.075 764.287C195.583 764.667 195.918 765.176 196.082 765.816ZM197.993 772V763.818H199.585V772H197.993ZM198.797 762.556C198.52 762.556 198.282 762.463 198.083 762.279C197.888 762.091 197.79 761.867 197.79 761.608C197.79 761.345 197.888 761.121 198.083 760.936C198.282 760.748 198.52 760.654 198.797 760.654C199.074 760.654 199.31 760.748 199.505 760.936C199.704 761.121 199.804 761.345 199.804 761.608C199.804 761.867 199.704 762.091 199.505 762.279C199.31 762.463 199.074 762.556 198.797 762.556ZM205.547 763.818V765.097H201.078V763.818H205.547ZM202.277 761.858H203.869V769.598C203.869 769.907 203.915 770.139 204.008 770.295C204.1 770.448 204.219 770.553 204.365 770.61C204.514 770.663 204.675 770.69 204.849 770.69C204.977 770.69 205.089 770.681 205.185 770.663C205.281 770.645 205.355 770.631 205.409 770.62L205.696 771.936C205.604 771.972 205.473 772.007 205.302 772.043C205.132 772.082 204.919 772.103 204.663 772.107C204.244 772.114 203.853 772.039 203.491 771.883C203.129 771.727 202.836 771.485 202.612 771.158C202.388 770.832 202.277 770.422 202.277 769.928V761.858ZM210.747 772.165C209.941 772.165 209.247 771.993 208.665 771.648C208.086 771.3 207.638 770.812 207.322 770.184C207.01 769.551 206.854 768.811 206.854 767.962C206.854 767.124 207.01 766.386 207.322 765.746C207.638 765.107 208.079 764.608 208.643 764.25C209.211 763.891 209.876 763.712 210.635 763.712C211.097 763.712 211.545 763.788 211.978 763.941C212.411 764.093 212.8 764.333 213.144 764.66C213.489 764.987 213.76 765.411 213.959 765.933C214.158 766.451 214.258 767.082 214.258 767.824V768.388H207.754V767.195H212.697C212.697 766.776 212.612 766.405 212.441 766.082C212.271 765.755 212.031 765.498 211.722 765.31C211.417 765.121 211.058 765.027 210.646 765.027C210.199 765.027 209.808 765.137 209.474 765.358C209.144 765.574 208.888 765.858 208.707 766.21C208.53 766.558 208.441 766.936 208.441 767.344V768.277C208.441 768.824 208.537 769.289 208.729 769.672C208.924 770.056 209.195 770.349 209.544 770.551C209.892 770.75 210.298 770.849 210.763 770.849C211.065 770.849 211.34 770.807 211.589 770.722C211.838 770.633 212.052 770.501 212.233 770.327C212.415 770.153 212.553 769.939 212.649 769.683L214.156 769.955C214.036 770.398 213.819 770.787 213.507 771.121C213.198 771.451 212.809 771.709 212.34 771.893C211.875 772.075 211.344 772.165 210.747 772.165Z" fill="white"/>
<g filter="url(#filter1_d_15_490)">
<circle cx="58" cy="767" r="25.95" fill="#1E1E1E" stroke="#636363" stroke-width="0.1"/>
</g>
<path d="M54.5 767.25C54.5 768.2 54.5425 769.121 54.6215 770H61.8785C61.9575 769.121 62 768.2 62 767.25C62 766.3 61.9575 765.379 61.878 764.5H54.6225C54.5425 765.379 54.5 766.3 54.5 767.25ZM53.1165 764.5C53.0382 765.415 52.9994 766.332 53 767.25C53 768.193 53.04 769.113 53.116 770H47.3385C47.1175 769.12 47 768.198 47 767.25C47 766.302 47.1175 765.38 47.3385 764.5H53.1165ZM54.7995 763H61.7C61.478 761.486 61.142 760.137 60.7255 759.029C60.336 757.992 59.891 757.204 59.4355 756.691C58.979 756.175 58.576 756 58.25 756C57.924 756 57.521 756.175 57.064 756.69C56.6085 757.205 56.1635 757.992 55.774 759.029C55.3575 760.137 55.0215 761.486 54.799 763M63.3835 764.5C63.46 765.387 63.5 766.307 63.5 767.25C63.5 768.193 63.46 769.113 63.384 770H69.1615C69.3825 769.12 69.5 768.198 69.5 767.25C69.5 766.302 69.3825 765.38 69.1615 764.5H63.3835ZM68.67 763H63.2155C62.9805 761.306 62.6085 759.775 62.13 758.501C61.8245 757.688 61.4685 756.96 61.063 756.355C64.523 757.246 67.338 759.741 68.669 763M53.284 763H47.8305C49.161 759.741 51.9765 757.246 55.4365 756.355C55.0315 756.96 54.675 757.688 54.3695 758.501C53.891 759.775 53.5195 761.306 53.2845 763M53.283 771.5H47.8305C49.1605 774.757 51.9735 777.252 55.4305 778.144C55.0255 777.539 54.6705 776.811 54.3655 775.999C53.888 774.724 53.517 773.194 53.283 771.5ZM60.73 775.472C61.145 774.364 61.48 773.014 61.702 771.5H54.798C55.0195 773.014 55.3545 774.364 55.77 775.472C56.159 776.508 56.6035 777.295 57.06 777.809C57.516 778.324 57.92 778.5 58.25 778.5C58.58 778.5 58.984 778.324 59.44 777.809C59.8965 777.295 60.341 776.508 60.73 775.472ZM62.1345 775.999C62.612 774.725 62.983 773.194 63.217 771.5H68.6695C67.3395 774.757 64.5265 777.252 61.0695 778.144C61.4745 777.539 61.8295 776.811 62.1345 775.999Z" fill="white"/>
<path d="M332.5 759.25H325.25C324.609 759.25 323.994 759.505 323.541 759.958C323.088 760.411 322.833 761.026 322.833 761.667V773.75C322.833 774.391 323.088 775.006 323.541 775.459C323.994 775.912 324.609 776.167 325.25 776.167H337.333C337.974 776.167 338.589 775.912 339.042 775.459C339.495 775.006 339.75 774.391 339.75 773.75V766.5M331.292 767.708L342.167 756.833M342.167 756.833H336.125M342.167 756.833V762.875" stroke="white" stroke-width="2" stroke-linecap="round" stroke-linejoin="round"/>
<rect x="18.5" y="817.5" width="357" height="75" rx="37.5" fill="#171717" stroke="#232323"/>
<g filter="url(#filter2_d_15_490)">
<circle cx="58" cy="855" r="25.95" fill="#1E1E1E" stroke="#636363" stroke-width="0.1"/>
</g>
<path d="M51.0516 522.931H39V545C39 545.552 39.4477 546 40 546H355C355.552 546 356 545.552 356 545V400.14L342.748 418.379C342.252 419.063 341.183 418.86 340.971 418.042L334.932 394.749C334.818 394.308 334.42 394 333.964 394H316.817C316.536 394 316.267 394.119 316.077 394.327L304.319 407.256C304.018 407.586 303.535 407.677 303.135 407.478L289.43 400.677C288.868 400.398 288.191 400.699 288.022 401.303L277.303 439.605C277.079 440.407 276.028 440.599 275.534 439.927L264.213 424.516C263.765 423.905 262.826 423.995 262.503 424.681L260.859 428.162C260.583 428.745 259.837 428.919 259.333 428.518L253.534 423.914C253.043 423.524 252.319 423.677 252.027 424.233L243.294 440.876C243.078 441.289 242.604 441.497 242.153 441.378L232.288 438.767C231.756 438.626 231.21 438.941 231.067 439.473L219.853 481.028C219.774 481.32 219.568 481.56 219.291 481.682L203.196 488.783C202.711 488.996 202.144 488.795 201.902 488.323L190.694 466.416C190.316 465.677 189.254 465.693 188.9 466.444L184.138 476.528C184.03 476.757 183.838 476.937 183.603 477.03L172.814 481.314C172.534 481.425 172.319 481.656 172.229 481.943L165.766 502.471C165.666 502.788 165.416 503.035 165.098 503.129L150.48 507.482C150.262 507.547 150.073 507.684 149.943 507.871L140.272 521.835C139.892 522.383 139.092 522.413 138.673 521.894L131.408 512.921C131.075 512.509 130.478 512.429 130.047 512.739L107.254 529.135C106.897 529.392 106.413 529.385 106.063 529.118L98.5731 523.404C98.2092 523.126 97.7032 523.131 97.3447 523.415L90.4957 528.854C90.3188 528.995 90.0996 529.071 89.8738 529.071H75.1993C74.9188 529.071 74.6513 528.953 74.4619 528.746L60.1264 513.094C59.698 512.626 58.9478 512.671 58.5773 513.185L51.8633 522.516C51.6754 522.777 51.3733 522.931 51.0516 522.931Z" fill="url(#paint0_linear_15_490)" fill-opacity="0.24"/>
<path d="M40.887 522.931H50.5394C51.1828 522.931 51.7869 522.622 52.1628 522.1L57.8591 514.184C58.6001 513.154 60.1004 513.066 60.9573 514.001L74.1647 528.422C74.5436 528.835 75.0787 529.071 75.6396 529.071H89.5252C89.9769 529.071 90.4152 528.918 90.7689 528.637L96.4029 524.163C97.2621 523.481 98.5107 523.618 99.201 524.471L105.334 532.047C106.052 532.934 107.365 533.042 108.218 532.283L129.249 513.579C130.101 512.821 131.414 512.929 132.132 513.815L137.833 520.857C138.673 521.894 140.272 521.834 141.032 520.738L149.743 508.16C150.002 507.786 150.381 507.512 150.817 507.382L164.589 503.281C165.225 503.091 165.726 502.598 165.926 501.965L172.086 482.396C172.267 481.822 172.697 481.36 173.256 481.138L183.236 477.176C183.707 476.989 184.09 476.629 184.307 476.171L188.032 468.283C188.741 466.781 190.865 466.748 191.621 468.226L201.472 487.483C201.955 488.426 203.09 488.829 204.06 488.401L218.854 481.875C219.407 481.631 219.82 481.15 219.978 480.566L225.528 460.001L230.808 440.434C231.095 439.371 232.186 438.74 233.25 439.021L241.382 441.174C242.284 441.412 243.231 440.996 243.665 440.17L251.466 425.303C252.049 424.192 253.498 423.886 254.481 424.666L258.345 427.734C259.354 428.536 260.847 428.187 261.397 427.022L261.786 426.198C262.433 424.828 264.31 424.647 265.207 425.868L274.319 438.272C275.306 439.616 277.407 439.233 277.857 437.627L287.697 402.466C288.035 401.258 289.388 400.656 290.512 401.214L302.458 407.143C303.259 407.54 304.226 407.358 304.827 406.697L315.78 394.654C316.159 394.238 316.696 394 317.26 394H333.19C334.102 394 334.898 394.616 335.126 395.498L340.344 415.622C340.783 417.317 343.035 417.669 343.971 416.189L354.113 400.14" stroke="#FF5E00" stroke-width="2" stroke-linecap="round"/>
<rect x="390" y="900" width="393" height="182" transform="rotate(-180 390 900)" fill="url(#paint1_linear_15_490)"/>
<rect width="393" height="114" fill="url(#paint2_linear_15_490)"/>
<g filter="url(#filter3_d_15_490)">
<rect x="10" y="738" width="373" height="87" rx="40.5" fill="#101010" shape-rendering="crispEdges"/>
<rect x="10" y="738" width="373" height="87" rx="40.5" stroke="#FF5300" stroke-opacity="0.5" stroke-width="0.2" shape-rendering="crispEdges"/>
</g>
<path d="M47 790.75V779.5C47 779.104 47.0887 778.729 47.2662 778.375C47.4437 778.021 47.6883 777.729 48 777.5L55.5 771.875C55.9375 771.542 56.4375 771.375 57 771.375C57.5625 771.375 58.0625 771.542 58.5 771.875L66 777.5C66.3125 777.729 66.5575 778.021 66.735 778.375C66.9125 778.729 67.0008 779.104 67 779.5V790.75C67 791.438 66.755 792.026 66.265 792.516C65.775 793.006 65.1867 793.251 64.5 793.25H60.75C60.3958 793.25 60.0992 793.13 59.86 792.89C59.6208 792.65 59.5008 792.353 59.5 792V785.75C59.5 785.396 59.38 785.099 59.14 784.86C58.9 784.621 58.6033 784.501 58.25 784.5H55.75C55.3958 784.5 55.0992 784.62 54.86 784.86C54.6208 785.1 54.5008 785.397 54.5 785.75V792C54.5 792.354 54.38 792.651 54.14 792.891C53.9 793.131 53.6033 793.251 53.25 793.25H49.5C48.8125 793.25 48.2242 793.005 47.735 792.516C47.2458 792.027 47.0008 791.438 47 790.75Z" fill="white"/>
<path d="M115.75 779.5H120.75V788.25H115.75V779.5ZM124.5 775.75H129.5V792H124.5V775.75Z" fill="#FF5E00" stroke="#FF5E00" stroke-width="2" stroke-linejoin="round"/>
<path d="M127 794.5V792" stroke="#FF5E00" stroke-width="2" stroke-linecap="round" stroke-linejoin="round"/>
<path d="M133.25 774.5H138.25V780.125H133.25V774.5Z" fill="#FF5E00" stroke="#FF5E00" stroke-width="2" stroke-linejoin="round"/>
<path d="M118.25 779.5V773.25M135.75 788.25V780.125M135.75 774.5V769.5" stroke="#FF5E00" stroke-width="2" stroke-linecap="round" stroke-linejoin="round"/>
<path d="M200.831 778.146L197 778.146C196.655 778.146 196.366 778.269 196.133 778.516C195.899 778.763 195.783 779.067 195.784 779.431C195.785 779.794 195.901 780.099 196.134 780.347C196.367 780.594 196.655 780.717 197 780.715L200.831 780.715L199.767 781.872C199.544 782.107 199.432 782.402 199.432 782.755C199.432 783.109 199.554 783.414 199.797 783.67C200.02 783.906 200.304 784.023 200.649 784.023C200.993 784.023 201.277 783.906 201.5 783.67L204.632 780.362C204.875 780.105 204.997 779.8 204.997 779.447C204.997 779.094 204.875 778.789 204.632 778.531L201.5 775.191C201.277 774.955 200.998 774.832 200.663 774.821C200.328 774.81 200.04 774.933 199.797 775.191C199.574 775.427 199.458 775.721 199.447 776.075C199.436 776.429 199.543 776.734 199.767 776.99L200.831 778.146ZM193.169 783.285L194.233 782.129C194.456 781.893 194.568 781.599 194.568 781.246C194.568 780.893 194.446 780.588 194.203 780.33C193.98 780.094 193.696 779.977 193.351 779.977C193.007 779.977 192.723 780.094 192.5 780.33L189.338 783.67C189.095 783.927 188.973 784.232 188.973 784.586C188.973 784.94 189.095 785.245 189.338 785.501L192.5 788.809C192.723 789.045 193.001 789.168 193.335 789.179C193.67 789.19 193.959 789.067 194.203 788.809C194.426 788.574 194.542 788.279 194.553 787.926C194.563 787.574 194.457 787.268 194.233 787.01L193.169 785.854L197 785.854C197.345 785.854 197.633 785.731 197.866 785.484C198.099 785.238 198.215 784.933 198.216 784.57C198.217 784.206 198.1 783.901 197.866 783.655C197.632 783.408 197.343 783.285 197 783.285L193.169 783.285ZM184.838 782C184.838 780.223 185.157 778.553 185.796 776.99C186.435 775.427 187.301 774.067 188.395 772.911C189.489 771.754 190.776 770.839 192.257 770.165C193.737 769.491 195.318 769.154 197 769.153C198.682 769.152 200.263 769.489 201.743 770.165C203.224 770.841 204.511 771.756 205.605 772.911C206.698 774.065 207.565 775.425 208.204 776.99C208.843 778.554 209.162 780.225 209.162 782C209.162 783.776 208.843 785.446 208.204 787.01C207.565 788.575 206.698 789.935 205.605 791.089C204.511 792.244 203.224 793.16 201.743 793.836C200.263 794.513 198.682 794.85 197 794.847C195.318 794.845 193.737 794.507 192.257 793.835C190.776 793.163 189.489 792.247 188.395 791.089C187.301 789.932 186.435 788.572 185.795 787.01C185.155 785.449 184.836 783.779 184.838 782Z" fill="white"/>
<path d="M275.75 772C276.413 772 277.049 772.263 277.518 772.732C277.987 773.201 278.25 773.837 278.25 774.5V775.75H270.75C269.092 775.75 267.503 776.408 266.331 777.581C265.158 778.753 264.5 780.342 264.5 782C264.5 783.658 265.158 785.247 266.331 786.419C267.503 787.592 269.092 788.25 270.75 788.25H278.25V789.5C278.25 790.163 277.987 790.799 277.518 791.268C277.049 791.737 276.413 792 275.75 792H258.25C257.587 792 256.951 791.737 256.482 791.268C256.013 790.799 255.75 790.163 255.75 789.5V774.5C255.75 773.837 256.013 773.201 256.482 772.732C256.951 772.263 257.587 772 258.25 772H275.75ZM277 778.25C277.663 778.25 278.299 778.513 278.768 778.982C279.237 779.451 279.5 780.087 279.5 780.75V783.25C279.5 783.913 279.237 784.549 278.768 785.018C278.299 785.487 277.663 785.75 277 785.75H270.75C269.755 785.75 268.802 785.355 268.098 784.652C267.395 783.948 267 782.995 267 782C267 781.005 267.395 780.052 268.098 779.348C268.802 778.645 269.755 778.25 270.75 778.25H277ZM270.75 780.75C270.418 780.75 270.101 780.882 269.866 781.116C269.632 781.351 269.5 781.668 269.5 782C269.5 782.332 269.632 782.649 269.866 782.884C270.101 783.118 270.418 783.25 270.75 783.25C271.082 783.25 271.399 783.118 271.634 782.884C271.868 782.649 272 782.332 272 782C272 781.668 271.868 781.351 271.634 781.116C271.399 780.882 271.082 780.75 270.75 780.75Z" fill="white"/>
<mask id="mask0_15_490" style="mask-type:luminance" maskUnits="userSpaceOnUse" x="323" y="768" width="28" height="27">
<path d="M333.428 793.982C331.36 793.364 329.488 792.222 327.993 790.667C328.474 790.096 328.773 789.395 328.854 788.653C328.934 787.911 328.791 787.162 328.443 786.502C328.096 785.842 327.559 785.3 326.901 784.947C326.244 784.593 325.496 784.444 324.754 784.518C324.584 783.69 324.499 782.846 324.5 782C324.5 780.694 324.7 779.434 325.073 778.25H325.125C325.762 778.25 326.389 778.088 326.946 777.779C327.504 777.469 327.973 777.023 328.31 776.482C328.647 775.941 328.84 775.323 328.872 774.686C328.903 774.05 328.772 773.416 328.491 772.844C329.956 771.48 331.728 770.488 333.658 769.952C333.971 770.568 334.45 771.086 335.04 771.447C335.63 771.809 336.308 772 337 772C337.692 772 338.37 771.809 338.96 771.447C339.55 771.086 340.029 770.568 340.343 769.952C342.272 770.488 344.044 771.48 345.509 772.844C345.226 773.42 345.095 774.059 345.129 774.7C345.163 775.34 345.361 775.962 345.704 776.504C346.047 777.047 346.524 777.492 347.088 777.798C347.652 778.104 348.286 778.259 348.928 778.25C349.308 779.464 349.501 780.728 349.5 782C349.5 782.863 349.413 783.705 349.246 784.519C348.504 784.445 347.756 784.594 347.099 784.947C346.441 785.301 345.904 785.842 345.557 786.503C345.209 787.163 345.066 787.912 345.146 788.654C345.227 789.396 345.526 790.097 346.008 790.668C344.512 792.223 342.64 793.365 340.573 793.982C340.33 793.225 339.853 792.565 339.211 792.097C338.569 791.629 337.795 791.376 337 791.376C336.205 791.376 335.431 791.629 334.789 792.097C334.147 792.565 333.67 793.225 333.428 793.982Z" fill="white" stroke="white" stroke-width="2" stroke-linejoin="round"/>
<path d="M337 786.375C337.575 786.375 338.143 786.262 338.674 786.042C339.205 785.822 339.687 785.5 340.094 785.094C340.5 784.687 340.822 784.205 341.042 783.674C341.262 783.143 341.375 782.575 341.375 782C341.375 781.425 341.262 780.857 341.042 780.326C340.822 779.795 340.5 779.313 340.094 778.906C339.687 778.5 339.205 778.178 338.674 777.958C338.143 777.738 337.575 777.625 337 777.625C335.84 777.625 334.727 778.086 333.906 778.906C333.086 779.727 332.625 780.84 332.625 782C332.625 783.16 333.086 784.273 333.906 785.094C334.727 785.914 335.84 786.375 337 786.375Z" fill="black" stroke="black" stroke-width="2" stroke-linejoin="round"/>
</mask>
<g mask="url(#mask0_15_490)">
<path d="M322 767H352V797H322V767Z" fill="white"/>
</g>
<g filter="url(#filter4_d_15_490)">
<circle cx="51" cy="50" r="25.95" fill="#1E1E1E" stroke="#636363" stroke-width="0.1"/>
</g>
<path d="M42.2829 48.94C42.002 49.2213 41.8442 49.6025 41.8442 50C41.8442 50.3975 42.002 50.7788 42.2829 51.06L47.9389 56.719C48.2203 57.0004 48.602 57.1585 48.9999 57.1585C49.3979 57.1585 49.7795 57.0004 50.0609 56.719C50.3423 56.4376 50.5004 56.056 50.5004 55.658C50.5004 55.2601 50.3423 54.8784 50.0609 54.597L46.9649 51.5L58.4999 51.5C58.8977 51.5 59.2793 51.342 59.5606 51.0607C59.8419 50.7794 59.9999 50.3979 59.9999 50C59.9999 49.6022 59.8419 49.2207 59.5606 48.9394C59.2793 48.6581 58.8977 48.5 58.4999 48.5L46.9649 48.5L50.0609 45.404C50.2003 45.2647 50.3108 45.0993 50.3862 44.9172C50.4616 44.7352 50.5004 44.5401 50.5004 44.343C50.5004 44.146 50.4616 43.9509 50.3862 43.7688C50.3108 43.5868 50.2003 43.4214 50.0609 43.282C49.9216 43.1427 49.7562 43.0322 49.5741 42.9568C49.3921 42.8814 49.197 42.8425 48.9999 42.8425C48.8029 42.8425 48.6078 42.8814 48.4257 42.9568C48.2437 43.0322 48.0783 43.1427 47.9389 43.282L42.2829 48.94Z" fill="white"/>
<g filter="url(#filter5_d_15_490)">
<circle cx="339" cy="49" r="25.95" fill="#1E1E1E" stroke="#636363" stroke-width="0.1"/>
</g>
<path d="M338.5 37C336.226 37 334.002 37.6745 332.111 38.9381C330.22 40.2017 328.746 41.9978 327.875 44.0991C327.005 46.2005 326.777 48.5128 327.221 50.7435C327.665 52.9743 328.76 55.0234 330.368 56.6317C331.977 58.24 334.026 59.3353 336.256 59.779C338.487 60.2228 340.8 59.995 342.901 59.1246C345.002 58.2542 346.798 56.7802 348.062 54.8891C349.326 52.9979 350 50.7745 350 48.5C350 46.9898 349.703 45.4944 349.125 44.0991C348.547 42.7039 347.7 41.4361 346.632 40.3683C345.564 39.3004 344.296 38.4533 342.901 37.8754C341.506 37.2975 340.01 37 338.5 37ZM339.65 53.1C339.65 53.405 339.529 53.6975 339.313 53.9132C339.098 54.1288 338.805 54.25 338.5 54.25C338.195 54.25 337.902 54.1288 337.687 53.9132C337.471 53.6975 337.35 53.405 337.35 53.1V47.35C337.35 47.045 337.471 46.7525 337.687 46.5368C337.902 46.3212 338.195 46.2 338.5 46.2C338.805 46.2 339.098 46.3212 339.313 46.5368C339.529 46.7525 339.65 47.045 339.65 47.35V53.1ZM338.5 45.05C338.273 45.05 338.05 44.9826 337.861 44.8562C337.672 44.7298 337.525 44.5502 337.438 44.3401C337.351 44.1299 337.328 43.8987 337.372 43.6756C337.416 43.4526 337.526 43.2477 337.687 43.0868C337.848 42.926 338.053 42.8165 338.276 42.7721C338.499 42.7277 338.73 42.7505 338.94 42.8375C339.15 42.9246 339.33 43.072 339.456 43.2611C339.583 43.4502 339.65 43.6725 339.65 43.9C339.65 44.205 339.529 44.4975 339.313 44.7132C339.098 44.9288 338.805 45.05 338.5 45.05Z" fill="white"/>
</g>
<defs>
<filter id="filter0_d_15_490" x="297.7" y="588.7" width="68.6" height="68.6" filterUnits="userSpaceOnUse" color-interpolation-filters="sRGB">
<feFlood flood-opacity="0" result="BackgroundImageFix"/>
<feColorMatrix in="SourceAlpha" type="matrix" values="0 0 0 0 0 0 0 0 0 0 0 0 0 0 0 0 0 0 127 0" result="hardAlpha"/>
<feOffset/>
<feGaussianBlur stdDeviation="5.15"/>
<feComposite in2="hardAlpha" operator="out"/>
<feColorMatrix type="matrix" values="0 0 0 0 1 0 0 0 0 1 0 0 0 0 1 0 0 0 0.05 0"/>
<feBlend mode="normal" in2="BackgroundImageFix" result="effect1_dropShadow_15_490"/>
<feBlend mode="normal" in="SourceGraphic" in2="effect1_dropShadow_15_490" result="shape"/>
</filter>
<filter id="filter1_d_15_490" x="21.7" y="730.7" width="72.6" height="72.6" filterUnits="userSpaceOnUse" color-interpolation-filters="sRGB">
<feFlood flood-opacity="0" result="BackgroundImageFix"/>
<feColorMatrix in="SourceAlpha" type="matrix" values="0 0 0 0 0 0 0 0 0 0 0 0 0 0 0 0 0 0 127 0" result="hardAlpha"/>
<feOffset/>
<feGaussianBlur stdDeviation="5.15"/>
<feComposite in2="hardAlpha" operator="out"/>
<feColorMatrix type="matrix" values="0 0 0 0 1 0 0 0 0 1 0 0 0 0 1 0 0 0 0.05 0"/>
<feBlend mode="normal" in2="BackgroundImageFix" result="effect1_dropShadow_15_490"/>
<feBlend mode="normal" in="SourceGraphic" in2="effect1_dropShadow_15_490" result="shape"/>
</filter>
<filter id="filter2_d_15_490" x="21.7" y="818.7" width="72.6" height="72.6" filterUnits="userSpaceOnUse" color-interpolation-filters="sRGB">
<feFlood flood-opacity="0" result="BackgroundImageFix"/>
<feColorMatrix in="SourceAlpha" type="matrix" values="0 0 0 0 0 0 0 0 0 0 0 0 0 0 0 0 0 0 127 0" result="hardAlpha"/>
<feOffset/>
<feGaussianBlur stdDeviation="5.15"/>
<feComposite in2="hardAlpha" operator="out"/>
<feColorMatrix type="matrix" values="0 0 0 0 1 0 0 0 0 1 0 0 0 0 1 0 0 0 0.05 0"/>
<feBlend mode="normal" in2="BackgroundImageFix" result="effect1_dropShadow_15_490"/>
<feBlend mode="normal" in="SourceGraphic" in2="effect1_dropShadow_15_490" result="shape"/>
</filter>
<filter id="filter3_d_15_490" x="-13.3001" y="714.7" width="419.6" height="133.6" filterUnits="userSpaceOnUse" color-interpolation-filters="sRGB">
<feFlood flood-opacity="0" result="BackgroundImageFix"/>
<feColorMatrix in="SourceAlpha" type="matrix" values="0 0 0 0 0 0 0 0 0 0 0 0 0 0 0 0 0 0 127 0" result="hardAlpha"/>
<feOffset/>
<feGaussianBlur stdDeviation="11.6"/>
<feComposite in2="hardAlpha" operator="out"/>
<feColorMatrix type="matrix" values="0 0 0 0 1 0 0 0 0 0.32549 0 0 0 0 0 0 0 0 0.1 0"/>
<feBlend mode="normal" in2="BackgroundImageFix" result="effect1_dropShadow_15_490"/>
<feBlend mode="normal" in="SourceGraphic" in2="effect1_dropShadow_15_490" result="shape"/>
</filter>
<filter id="filter4_d_15_490" x="14.7" y="13.7" width="72.6" height="72.6" filterUnits="userSpaceOnUse" color-interpolation-filters="sRGB">
<feFlood flood-opacity="0" result="BackgroundImageFix"/>
<feColorMatrix in="SourceAlpha" type="matrix" values="0 0 0 0 0 0 0 0 0 0 0 0 0 0 0 0 0 0 127 0" result="hardAlpha"/>
<feOffset/>
<feGaussianBlur stdDeviation="5.15"/>
<feComposite in2="hardAlpha" operator="out"/>
<feColorMatrix type="matrix" values="0 0 0 0 1 0 0 0 0 1 0 0 0 0 1 0 0 0 0.05 0"/>
<feBlend mode="normal" in2="BackgroundImageFix" result="effect1_dropShadow_15_490"/>
<feBlend mode="normal" in="SourceGraphic" in2="effect1_dropShadow_15_490" result="shape"/>
</filter>
<filter id="filter5_d_15_490" x="302.7" y="12.7" width="72.6" height="72.6" filterUnits="userSpaceOnUse" color-interpolation-filters="sRGB">
<feFlood flood-opacity="0" result="BackgroundImageFix"/>
<feColorMatrix in="SourceAlpha" type="matrix" values="0 0 0 0 0 0 0 0 0 0 0 0 0 0 0 0 0 0 127 0" result="hardAlpha"/>
<feOffset/>
<feGaussianBlur stdDeviation="5.15"/>
<feComposite in2="hardAlpha" operator="out"/>
<feColorMatrix type="matrix" values="0 0 0 0 1 0 0 0 0 1 0 0 0 0 1 0 0 0 0.05 0"/>
<feBlend mode="normal" in2="BackgroundImageFix" result="effect1_dropShadow_15_490"/>
<feBlend mode="normal" in="SourceGraphic" in2="effect1_dropShadow_15_490" result="shape"/>
</filter>
<linearGradient id="paint0_linear_15_490" x1="197.5" y1="394" x2="197.5" y2="546" gradientUnits="userSpaceOnUse">
<stop stop-color="#FF5E00"/>
<stop offset="1" stop-color="#FEF0EE" stop-opacity="0"/>
</linearGradient>
<linearGradient id="paint1_linear_15_490" x1="586.5" y1="900" x2="586.5" y2="1082" gradientUnits="userSpaceOnUse">
<stop offset="0.557692" stop-color="#171311"/>
<stop offset="1" stop-color="#171311" stop-opacity="0"/>
</linearGradient>
<linearGradient id="paint2_linear_15_490" x1="196.5" y1="0" x2="196.5" y2="114" gradientUnits="userSpaceOnUse">
<stop stop-color="#171311"/>
<stop offset="1" stop-color="#171311" stop-opacity="0"/>
</linearGradient>
<clipPath id="clip0_15_490">
<rect width="393" height="834" rx="50" fill="white"/>
</clipPath>
</defs>
</svg>
